<svg width="64" height="64" viewBox="0 0 64 64" fill="none" xmlns="http://www.w3.org/2000/svg">
<path d="M18.6667 37.3333C14.2484 37.3333 10.6667 40.9149 10.6667 45.3333C10.6667 49.7517 14.2484 53.3333 18.6667 53.3333C19.6017 53.3333 20.4992 53.1727 21.3333 52.8781" stroke="black" stroke-width="4" stroke-linecap="round" stroke-linejoin="round"/>
<path d="M11.3704 41.6122C7.79813 39.8885 5.33344 36.232 5.33344 32C5.33344 28.7688 6.77005 25.8733 9.03941 23.9172" stroke="black" stroke-width="4" stroke-linecap="round" stroke-linejoin="round"/>
<path d="M9.12141 23.7018C8.41307 22.6428 8 21.3696 8 19.9999C8 16.318 10.9848 13.3333 14.6667 13.3333C16.1678 13.3333 17.553 13.8294 18.6673 14.6666" stroke="black" stroke-width="4" stroke-linecap="round" stroke-linejoin="round"/>
<path d="M19.3005 14.8408C18.894 13.979 18.6667 13.016 18.6667 11.9999C18.6667 8.31803 21.6514 5.33325 25.3333 5.33325C29.0152 5.33325 32 8.31803 32 11.9999V53.3333" stroke="black" stroke-width="4" stroke-linecap="round" stroke-linejoin="round"/>
<path d="M21.3333 53.3333C21.3333 56.2789 23.7212 58.6666 26.6667 58.6666C29.6123 58.6666 32 56.2789 32 53.3333" stroke="black" stroke-width="4" stroke-linecap="round" stroke-linejoin="round"/>
<path d="M32 18.6667C32 23.085 35.5816 26.6667 40 26.6667" stroke="black" stroke-width="4" stroke-linecap="round" stroke-linejoin="round"/>
<path d="M54.9605 23.9172C57.2299 25.8733 58.6667 28.7688 58.6667 32C58.6667 33.8749 58.1829 35.6368 57.3333 37.1677" stroke="black" stroke-width="4" stroke-linecap="round" stroke-linejoin="round"/>
<path d="M54.8787 23.7018C55.5869 22.6428 56 21.3696 56 19.9999C56 16.318 53.0152 13.3333 49.3333 13.3333C47.8323 13.3333 46.4469 13.8294 45.3328 14.6666" stroke="black" stroke-width="4" stroke-linecap="round" stroke-linejoin="round"/>
<path d="M32 11.9999C32 8.31803 34.9848 5.33325 38.6667 5.33325C42.3485 5.33325 45.3333 8.31803 45.3333 11.9999C45.3333 13.016 45.1061 13.979 44.6995 14.8408" stroke="black" stroke-width="4" stroke-linecap="round" stroke-linejoin="round"/>
<path d="M37.3333 58.6666C34.3877 58.6666 32 56.2789 32 53.3333" stroke="black" stroke-width="4" stroke-linecap="round" stroke-linejoin="round"/>
<path d="M49.7779 42.6667L45.3333 50.6667H56L51.5555 58.6667" stroke="black" stroke-width="4" stroke-linecap="round" stroke-linejoin="round"/>
</svg>
