<svg width="600" height="237" viewBox="0 0 600 237" fill="none" xmlns="http://www.w3.org/2000/svg">
<path d="M-0.892687 217.76L-0.893721 217.761L-0.893835 217.761L-0.893858 217.761L-0.894421 217.761L-2 218.061V219.208V237V238.5H-0.5H600.5H602V237V6V3.4728L599.782 4.68325L600.5 6C599.782 4.68325 599.781 4.68352 599.78 4.68386L599.779 4.68488L599.773 4.68818L599.751 4.69984L599.673 4.74336C599.605 4.78136 599.505 4.83735 599.375 4.9114C599.115 5.0595 598.733 5.27985 598.24 5.573C597.254 6.15927 595.822 7.03683 594.024 8.21008C590.428 10.5564 585.364 14.0864 579.468 18.8356C567.689 28.3227 552.57 42.6897 539.199 62.2211C532.704 70.1187 526.577 74.182 521.036 75.8382C515.505 77.4915 510.405 76.7924 505.865 74.8819C496.68 71.0166 489.898 62.2381 487.125 58.2257L487.045 58.1111L486.946 58.013C477.334 48.4905 469.346 45.0994 459.472 43.8428C454.609 43.2237 449.295 43.1227 443.18 43.0217L442.634 43.0127C436.661 42.9145 429.871 42.8028 421.835 42.2255C418.396 41.3668 416.518 40.6445 414.919 40.0291C414.324 39.8004 413.768 39.5864 413.184 39.3856C410.936 38.6126 408.66 38.2002 403.437 38.1683C394.561 38.1142 387.057 44.5129 380.286 53.3333C374.353 61.0615 368.715 71.0134 363.011 81.0821C362.165 82.5762 361.317 84.0728 360.467 85.5652C353.844 97.1863 347.05 108.569 339.425 116.882C331.804 125.19 323.574 130.195 314.077 129.558C302.099 128.756 293.486 133.628 286.698 141.099C280.102 148.358 275.161 158.147 270.405 167.571L270.149 168.08C265.258 177.768 260.544 186.992 254.375 193.297C251.315 196.424 247.938 198.786 244.053 200.122C240.176 201.455 235.705 201.796 230.406 200.753C199.717 194.711 187.078 186.662 171.166 176.529C164.954 172.573 158.244 168.3 149.766 163.704C142.079 159.537 128.536 156.479 114.685 156.369C100.853 156.259 86.2932 159.085 76.8012 167.112C50.9983 188.934 31.5108 201.613 18.5061 208.829C12.0039 212.436 7.12253 214.678 3.88269 216.013C2.26276 216.681 1.05315 217.122 0.256434 217.394C-0.141926 217.53 -0.437078 217.624 -0.628699 217.682C-0.724511 217.712 -0.794441 217.732 -0.838452 217.745L-0.885024 217.758L-0.892687 217.76Z" fill="url(#paint0_linear_8_717)" stroke="#833AFB" stroke-width="3"/>
<defs>
<linearGradient id="paint0_linear_8_717" x1="302.097" y1="5.70154" x2="302.097" y2="237" gradientUnits="userSpaceOnUse">
<stop stop-color="#833AFB" stop-opacity="0.25"/>
<stop offset="0.9" stop-color="white" stop-opacity="0.25"/>
</linearGradient>
</defs>
</svg>
