<svg width="496" height="223" viewBox="0 0 496 223" fill="none" xmlns="http://www.w3.org/2000/svg">
<path d="M6.62046 17.9373C5.71664 17.9373 4.95521 17.8073 4.33616 17.5473C3.71712 17.2749 3.25283 16.8663 2.9433 16.3216C2.64616 15.7768 2.50997 15.0835 2.53473 14.2416C2.54711 14.093 2.6214 14.0187 2.75759 14.0187H4.46616C4.60236 14.0187 4.67045 14.0992 4.67045 14.2601C4.65807 14.8296 4.80664 15.2754 5.11617 15.5973C5.43807 15.9192 5.95807 16.0801 6.67617 16.0801C7.36951 16.0801 7.87094 15.9625 8.18046 15.7273C8.50237 15.492 8.66332 15.0958 8.66332 14.5387C8.66332 14.2787 8.62618 14.0558 8.55189 13.8701C8.4776 13.6844 8.3476 13.5173 8.16189 13.3687C7.98856 13.2077 7.74713 13.0592 7.4376 12.923L4.87474 11.7158C4.13188 11.3692 3.57473 10.942 3.2033 10.4344C2.84426 9.9144 2.67092 9.27058 2.6833 8.50296C2.69568 7.41344 3.05473 6.61486 3.76045 6.10724C4.46616 5.59962 5.43188 5.34581 6.6576 5.34581C7.99475 5.34581 9.01618 5.64296 9.72189 6.23724C10.4276 6.83153 10.7619 7.74153 10.7248 8.96725C10.7248 9.11582 10.6567 9.19011 10.5205 9.19011H8.81189C8.66332 9.19011 8.59522 9.11582 8.6076 8.96725C8.6076 8.37296 8.44046 7.93344 8.10617 7.64867C7.78427 7.35153 7.30141 7.20296 6.6576 7.20296C6.08807 7.20296 5.64855 7.31439 5.33902 7.53725C5.04188 7.74772 4.88712 8.07582 4.87474 8.52153C4.87474 8.91773 4.97379 9.23963 5.17188 9.48725C5.38236 9.72249 5.72283 9.95154 6.19331 10.1744L8.70046 11.363C9.18332 11.5734 9.5857 11.8211 9.90761 12.1058C10.2295 12.3782 10.4709 12.7063 10.6319 13.0901C10.7928 13.4739 10.8733 13.963 10.8733 14.5573C10.8733 15.6839 10.4957 16.532 9.74047 17.1016C8.99761 17.6587 7.9576 17.9373 6.62046 17.9373ZM5.97045 19.3487C5.84664 19.3487 5.78474 19.2868 5.78474 19.163V17.6216L7.71617 17.5287V19.163C7.71617 19.2868 7.65427 19.3487 7.53046 19.3487H5.97045ZM5.78474 5.66153V4.12009C5.78474 3.99628 5.84664 3.93438 5.97045 3.93438H7.53046C7.65427 3.93438 7.71617 3.99628 7.71617 4.12009V5.75438L5.78474 5.66153ZM18.114 17.9373C16.6283 17.9373 15.4831 17.6463 14.6783 17.0644C13.8859 16.4825 13.4897 15.6035 13.4897 14.4273C13.4897 13.6349 13.6754 12.9663 14.0469 12.4215C14.4307 11.8768 14.9569 11.4806 15.6254 11.233C15.1054 10.9977 14.7093 10.6634 14.4369 10.2301C14.1769 9.7844 14.0469 9.20249 14.0469 8.48439C14.0469 7.49391 14.3935 6.7201 15.0869 6.16296C15.7802 5.60581 16.7893 5.32724 18.114 5.32724C19.4388 5.32724 20.4478 5.60581 21.1412 6.16296C21.8345 6.7201 22.1812 7.49391 22.1812 8.48439C22.1812 9.20249 22.045 9.7844 21.7726 10.2301C21.5126 10.6634 21.1164 10.9977 20.584 11.233C21.265 11.4806 21.7912 11.8768 22.1626 12.4215C22.5464 12.9663 22.7383 13.6349 22.7383 14.4273C22.7383 15.6035 22.3359 16.4825 21.5312 17.0644C20.7388 17.6463 19.5997 17.9373 18.114 17.9373ZM18.114 16.1358C18.9188 16.1358 19.5193 15.9811 19.9155 15.6716C20.324 15.362 20.5283 14.9225 20.5283 14.353V14.0744C20.5283 13.4306 20.3117 12.9415 19.8783 12.6073C19.4574 12.2606 18.8693 12.0873 18.114 12.0873C17.3588 12.0873 16.7645 12.2606 16.3312 12.6073C15.9102 12.9415 15.6997 13.4306 15.6997 14.0744V14.353C15.6997 14.9225 15.8978 15.362 16.294 15.6716C16.7026 15.9811 17.3093 16.1358 18.114 16.1358ZM18.114 10.4715C18.7331 10.4715 19.2036 10.3353 19.5255 10.063C19.8597 9.7782 20.0269 9.3882 20.0269 8.89296V8.61439C20.0269 8.14391 19.8597 7.77249 19.5255 7.5001C19.2036 7.21534 18.7331 7.07296 18.114 7.07296C17.495 7.07296 17.0183 7.21534 16.684 7.5001C16.3621 7.77249 16.2012 8.14391 16.2012 8.61439V8.89296C16.2012 9.3882 16.3621 9.7782 16.684 10.063C17.0183 10.3353 17.495 10.4715 18.114 10.4715ZM24.9826 17.7144C24.8464 17.7144 24.7783 17.6401 24.7783 17.4916V5.25295C24.7783 5.10438 24.8464 5.0301 24.9826 5.0301H26.7469C26.8954 5.0301 26.9697 5.10438 26.9697 5.25295V9.7844C26.9697 10.0692 26.9635 10.3539 26.9511 10.6387C26.9511 10.9234 26.945 11.2082 26.9326 11.493C26.9326 11.7777 26.9264 12.0625 26.914 12.3473H26.9511C27.1616 12.0749 27.3721 11.8025 27.5826 11.5301C27.8054 11.2577 28.0283 10.9915 28.2512 10.7315L30.034 8.68868C30.0835 8.61439 30.1702 8.57725 30.294 8.57725H32.504C32.6154 8.57725 32.6774 8.60201 32.6897 8.65153C32.7145 8.70106 32.6959 8.76296 32.634 8.83725L29.5512 12.2358L32.894 17.4544C32.9435 17.5287 32.9559 17.5906 32.9312 17.6401C32.9064 17.6897 32.8445 17.7144 32.7454 17.7144H30.684C30.5726 17.7144 30.4859 17.6649 30.424 17.5658L28.0283 13.7773L26.9697 14.8916V17.4916C26.9697 17.6401 26.8954 17.7144 26.7469 17.7144H24.9826Z" fill="black" fill-opacity="0.25"/>
<path d="M6.6658 67.7945C5.76198 67.7945 5.00055 67.6645 4.3815 67.4045C3.76245 67.1321 3.29817 66.7236 2.98864 66.1788C2.6915 65.634 2.55531 64.9407 2.58007 64.0988C2.59245 63.9502 2.66674 63.8759 2.80293 63.8759H4.5115C4.6477 63.8759 4.71579 63.9564 4.71579 64.1174C4.70341 64.6869 4.85198 65.1326 5.16151 65.4545C5.48341 65.7764 6.00341 65.9374 6.72151 65.9374C7.41485 65.9374 7.91628 65.8197 8.2258 65.5845C8.54771 65.3493 8.70866 64.9531 8.70866 64.3959C8.70866 64.1359 8.67152 63.9131 8.59723 63.7274C8.52294 63.5416 8.39294 63.3745 8.20723 63.2259C8.0339 63.065 7.79247 62.9164 7.48294 62.7802L4.92008 61.5731C4.17722 61.2264 3.62007 60.7993 3.24864 60.2916C2.8896 59.7716 2.71626 59.1278 2.72864 58.3602C2.74102 57.2707 3.10007 56.4721 3.80579 55.9645C4.5115 55.4569 5.47722 55.2031 6.70294 55.2031C8.04009 55.2031 9.06152 55.5002 9.76723 56.0945C10.4729 56.6888 10.8072 57.5988 10.7701 58.8245C10.7701 58.9731 10.702 59.0473 10.5658 59.0473H8.85723C8.70866 59.0473 8.64056 58.9731 8.65294 58.8245C8.65294 58.2302 8.4858 57.7907 8.15151 57.5059C7.82961 57.2088 7.34675 57.0602 6.70294 57.0602C6.13341 57.0602 5.69389 57.1716 5.38436 57.3945C5.08722 57.605 4.93246 57.9331 4.92008 58.3788C4.92008 58.775 5.01912 59.0969 5.21722 59.3445C5.4277 59.5797 5.76817 59.8088 6.23865 60.0316L8.7458 61.2202C9.22866 61.4307 9.63104 61.6783 9.95295 61.9631C10.2749 62.2355 10.5163 62.5635 10.6772 62.9474C10.8382 63.3312 10.9187 63.8202 10.9187 64.4145C10.9187 65.5412 10.541 66.3893 9.7858 66.9588C9.04295 67.5159 8.00294 67.7945 6.6658 67.7945ZM6.01579 69.2059C5.89198 69.2059 5.83008 69.144 5.83008 69.0202V67.4788L7.76151 67.3859V69.0202C7.76151 69.144 7.69961 69.2059 7.5758 69.2059H6.01579ZM5.83008 55.5188V53.9773C5.83008 53.8535 5.89198 53.7916 6.01579 53.7916H7.5758C7.69961 53.7916 7.76151 53.8535 7.76151 53.9773V55.6116L5.83008 55.5188ZM18.1965 67.7945C16.7479 67.7945 15.646 67.4417 14.8908 66.7359C14.1355 66.0302 13.7579 64.9655 13.7579 63.5416V59.4188C13.7579 58.0692 14.1479 57.0292 14.9279 56.2988C15.7079 55.5559 16.8284 55.1845 18.2894 55.1845C19.0817 55.1845 19.7751 55.2897 20.3694 55.5002C20.9637 55.6983 21.4218 56.0078 21.7437 56.4288C22.0779 56.8373 22.2451 57.3635 22.2451 58.0073C22.2451 58.1435 22.1708 58.2116 22.0222 58.2116H20.3508C20.2022 58.2116 20.1279 58.1435 20.1279 58.0073C20.1279 57.6854 19.967 57.444 19.6451 57.2831C19.3232 57.1221 18.8775 57.0416 18.3079 57.0416C17.5279 57.0416 16.9398 57.2212 16.5436 57.5802C16.1598 57.9269 15.9679 58.4964 15.9679 59.2888V63.6531C15.9679 64.3588 16.1536 64.9159 16.5251 65.3245C16.8965 65.7331 17.4475 65.9374 18.1779 65.9374C18.896 65.9374 19.447 65.7455 19.8308 65.3616C20.227 64.9655 20.4251 64.4145 20.4251 63.7088V63.2816C20.4251 62.6997 20.2703 62.2726 19.9608 62.0002C19.6513 61.7154 19.1932 61.5731 18.5865 61.5731C18.1037 61.5731 17.6084 61.6721 17.1008 61.8702C16.6056 62.0683 16.1289 62.3593 15.6708 62.7431V61.0902C16.2032 60.6693 16.7727 60.3474 17.3794 60.1245C17.986 59.8893 18.6175 59.7716 19.2737 59.7716C20.4003 59.7716 21.2422 60.075 21.7994 60.6816C22.3565 61.2883 22.6351 62.1859 22.6351 63.3745C22.6351 64.7983 22.2575 65.894 21.5022 66.6617C20.747 67.4169 19.6451 67.7945 18.1965 67.7945ZM24.9372 67.5717C24.801 67.5717 24.7329 67.4974 24.7329 67.3488V55.1102C24.7329 54.9616 24.801 54.8873 24.9372 54.8873H26.7015C26.8501 54.8873 26.9244 54.9616 26.9244 55.1102V59.6416C26.9244 59.9264 26.9182 60.2112 26.9058 60.4959C26.9058 60.7807 26.8996 61.0654 26.8872 61.3502C26.8872 61.635 26.881 61.9197 26.8687 62.2045H26.9058C27.1163 61.9321 27.3268 61.6597 27.5372 61.3874C27.7601 61.115 27.983 60.8488 28.2058 60.5888L29.9887 58.5459C30.0382 58.4716 30.1249 58.4345 30.2487 58.4345H32.4587C32.5701 58.4345 32.632 58.4592 32.6444 58.5088C32.6692 58.5583 32.6506 58.6202 32.5887 58.6945L29.5058 62.0931L32.8487 67.3117C32.8982 67.3859 32.9106 67.4478 32.8858 67.4974C32.8611 67.5469 32.7992 67.5717 32.7001 67.5717H30.6387C30.5272 67.5717 30.4406 67.5221 30.3787 67.4231L27.983 63.6345L26.9244 64.7488V67.3488C26.9244 67.4974 26.8501 67.5717 26.7015 67.5717H24.9372Z" fill="black" fill-opacity="0.25"/>
<path d="M6.30182 117.652C5.39801 117.652 4.63658 117.522 4.01753 117.262C3.39848 116.989 2.93419 116.581 2.62467 116.036C2.32752 115.491 2.19133 114.798 2.21609 113.956C2.22847 113.807 2.30276 113.733 2.43895 113.733H4.14753C4.28372 113.733 4.35181 113.814 4.35181 113.975C4.33943 114.544 4.488 114.99 4.79753 115.312C5.11943 115.634 5.63944 115.795 6.35753 115.795C7.05087 115.795 7.5523 115.677 7.86182 115.442C8.18373 115.206 8.34468 114.81 8.34468 114.253C8.34468 113.993 8.30754 113.77 8.23325 113.585C8.15897 113.399 8.02897 113.232 7.84325 113.083C7.66992 112.922 7.42849 112.774 7.11896 112.637L4.5561 111.43C3.81324 111.084 3.2561 110.656 2.88467 110.149C2.52562 109.629 2.35228 108.985 2.36467 108.217C2.37705 107.128 2.73609 106.329 3.44181 105.822C4.14753 105.314 5.11324 105.06 6.33896 105.06C7.67611 105.06 8.69754 105.357 9.40326 105.952C10.109 106.546 10.4433 107.456 10.4061 108.682C10.4061 108.83 10.338 108.905 10.2018 108.905H8.49325C8.34468 108.905 8.27659 108.83 8.28897 108.682C8.28897 108.087 8.12182 107.648 7.78754 107.363C7.46563 107.066 6.98277 106.917 6.33896 106.917C5.76944 106.917 5.32991 107.029 5.02039 107.252C4.72324 107.462 4.56848 107.79 4.5561 108.236C4.5561 108.632 4.65515 108.954 4.85324 109.202C5.06372 109.437 5.4042 109.666 5.87467 109.889L8.38182 111.077C8.86468 111.288 9.26706 111.535 9.58897 111.82C9.91088 112.093 10.1523 112.421 10.3133 112.805C10.4742 113.188 10.5547 113.677 10.5547 114.272C10.5547 115.398 10.1771 116.246 9.42183 116.816C8.67897 117.373 7.63897 117.652 6.30182 117.652ZM5.65182 119.063C5.52801 119.063 5.4661 119.001 5.4661 118.877V117.336L7.39754 117.243V118.877C7.39754 119.001 7.33563 119.063 7.21182 119.063H5.65182ZM5.4661 105.376V103.835C5.4661 103.711 5.52801 103.649 5.65182 103.649H7.21182C7.33563 103.649 7.39754 103.711 7.39754 103.835V105.469L5.4661 105.376ZM19.0211 117.429C18.8849 117.429 18.8168 117.355 18.8168 117.206V115.219H12.6882C12.552 115.219 12.4839 115.145 12.4839 114.996V114.717C12.4839 114.643 12.4839 114.587 12.4839 114.55C12.4963 114.513 12.5149 114.464 12.5397 114.402L17.2754 105.432C17.3497 105.32 17.4425 105.265 17.554 105.265H19.4111C19.4854 105.265 19.5411 105.289 19.5782 105.339C19.6154 105.376 19.6092 105.432 19.5597 105.506L15.474 113.306H18.854L19.0025 109.555C19.0025 109.406 19.0706 109.332 19.2068 109.332H20.7854C20.934 109.332 21.0083 109.406 21.0083 109.555V113.306H22.2711C22.4197 113.306 22.494 113.374 22.494 113.51V114.996C22.494 115.145 22.4197 115.219 22.2711 115.219H21.0083V117.206C21.0083 117.355 20.934 117.429 20.7854 117.429H19.0211ZM24.3012 117.429C24.165 117.429 24.0969 117.355 24.0969 117.206V104.967C24.0969 104.819 24.165 104.745 24.3012 104.745H26.0655C26.2141 104.745 26.2884 104.819 26.2884 104.967V109.499C26.2884 109.784 26.2822 110.068 26.2698 110.353C26.2698 110.638 26.2636 110.923 26.2512 111.207C26.2512 111.492 26.245 111.777 26.2326 112.062H26.2698C26.4803 111.789 26.6907 111.517 26.9012 111.245C27.1241 110.972 27.3469 110.706 27.5698 110.446L29.3527 108.403C29.4022 108.329 29.4888 108.292 29.6127 108.292H31.8227C31.9341 108.292 31.996 108.316 32.0084 108.366C32.0331 108.415 32.0146 108.477 31.9527 108.552L28.8698 111.95L32.2127 117.169C32.2622 117.243 32.2746 117.305 32.2498 117.355C32.225 117.404 32.1631 117.429 32.0641 117.429H30.0027C29.8912 117.429 29.8046 117.379 29.7427 117.28L27.3469 113.492L26.2884 114.606V117.206C26.2884 117.355 26.2141 117.429 26.0655 117.429H24.3012Z" fill="black" fill-opacity="0.25"/>
<path d="M6.48318 167.509C5.57937 167.509 4.81794 167.379 4.19889 167.119C3.57984 166.847 3.11555 166.438 2.80603 165.893C2.50888 165.348 2.37269 164.655 2.39746 163.813C2.40984 163.665 2.48412 163.59 2.62031 163.59H4.32889C4.46508 163.59 4.53318 163.671 4.53318 163.832C4.52079 164.401 4.66937 164.847 4.97889 165.169C5.3008 165.491 5.8208 165.652 6.5389 165.652C7.23223 165.652 7.73366 165.534 8.04318 165.299C8.36509 165.064 8.52604 164.667 8.52604 164.11C8.52604 163.85 8.4889 163.627 8.41461 163.442C8.34033 163.256 8.21033 163.089 8.02461 162.94C7.85128 162.779 7.60985 162.631 7.30033 162.495L4.73746 161.287C3.9946 160.941 3.43746 160.514 3.06603 160.006C2.70698 159.486 2.53365 158.842 2.54603 158.075C2.55841 156.985 2.91746 156.187 3.62317 155.679C4.32889 155.171 5.29461 154.917 6.52032 154.917C7.85747 154.917 8.8789 155.215 9.58462 155.809C10.2903 156.403 10.6246 157.313 10.5875 158.539C10.5875 158.687 10.5194 158.762 10.3832 158.762H8.67462C8.52604 158.762 8.45795 158.687 8.47033 158.539C8.47033 157.945 8.30319 157.505 7.9689 157.22C7.64699 156.923 7.16414 156.775 6.52032 156.775C5.9508 156.775 5.51127 156.886 5.20175 157.109C4.90461 157.319 4.74984 157.647 4.73746 158.093C4.73746 158.489 4.83651 158.811 5.03461 159.059C5.24508 159.294 5.58556 159.523 6.05604 159.746L8.56319 160.935C9.04604 161.145 9.44843 161.393 9.77033 161.677C10.0922 161.95 10.3337 162.278 10.4946 162.662C10.6556 163.046 10.736 163.535 10.736 164.129C10.736 165.256 10.3584 166.104 9.60319 166.673C8.86033 167.23 7.82033 167.509 6.48318 167.509ZM5.83318 168.92C5.70937 168.92 5.64746 168.858 5.64746 168.735V167.193L7.5789 167.1V168.735C7.5789 168.858 7.51699 168.92 7.39318 168.92H5.83318ZM5.64746 155.233V153.692C5.64746 153.568 5.70937 153.506 5.83318 153.506H7.39318C7.51699 153.506 7.5789 153.568 7.5789 153.692V155.326L5.64746 155.233ZM13.7982 167.286C13.6496 167.286 13.5753 167.212 13.5753 167.063V165.596C13.5753 165.014 13.6805 164.494 13.891 164.036C14.1015 163.578 14.3863 163.169 14.7453 162.81C15.1044 162.451 15.4944 162.129 15.9153 161.845C16.3486 161.547 16.7758 161.269 17.1967 161.009C17.6177 160.737 18.0077 160.477 18.3668 160.229C18.7258 159.969 19.0106 159.69 19.221 159.393C19.4439 159.096 19.5553 158.774 19.5553 158.427V158.093C19.5553 157.647 19.4006 157.319 19.091 157.109C18.7815 156.886 18.311 156.775 17.6796 156.775C17.0482 156.775 16.5839 156.911 16.2867 157.183C15.9896 157.443 15.841 157.815 15.841 158.297C15.841 158.446 15.7729 158.52 15.6367 158.52H13.9467C13.8105 158.52 13.7363 158.446 13.7239 158.297C13.7115 157.555 13.8601 156.929 14.1696 156.422C14.4791 155.914 14.9434 155.537 15.5625 155.289C16.1939 155.029 16.9553 154.899 17.8467 154.899C19.1468 154.899 20.1187 155.165 20.7625 155.697C21.4187 156.23 21.7468 157.035 21.7468 158.112C21.7468 158.731 21.6415 159.269 21.431 159.727C21.2206 160.173 20.942 160.569 20.5953 160.916C20.261 161.25 19.8834 161.554 19.4625 161.826C19.0539 162.098 18.6453 162.358 18.2368 162.606C17.8282 162.841 17.4506 163.095 17.1039 163.367C16.7572 163.627 16.4787 163.918 16.2682 164.24C16.0577 164.562 15.9525 164.94 15.9525 165.373H21.4868C21.6229 165.373 21.691 165.441 21.691 165.577V167.063C21.691 167.212 21.6229 167.286 21.4868 167.286H13.7982ZM24.1198 167.286C23.9837 167.286 23.9156 167.212 23.9156 167.063V154.825C23.9156 154.676 23.9837 154.602 24.1198 154.602H25.8841C26.0327 154.602 26.107 154.676 26.107 154.825V159.356C26.107 159.641 26.1008 159.926 26.0884 160.21C26.0884 160.495 26.0822 160.78 26.0699 161.065C26.0699 161.349 26.0637 161.634 26.0513 161.919H26.0884C26.2989 161.647 26.5094 161.374 26.7199 161.102C26.9427 160.829 27.1656 160.563 27.3884 160.303L29.1713 158.26C29.2208 158.186 29.3075 158.149 29.4313 158.149H31.6413C31.7527 158.149 31.8146 158.174 31.827 158.223C31.8518 158.273 31.8332 158.335 31.7713 158.409L28.6884 161.807L32.0313 167.026C32.0808 167.1 32.0932 167.162 32.0684 167.212C32.0437 167.261 31.9818 167.286 31.8827 167.286H29.8213C29.7099 167.286 29.6232 167.237 29.5613 167.137L27.1656 163.349L26.107 164.463V167.063C26.107 167.212 26.0327 167.286 25.8841 167.286H24.1198Z" fill="black" fill-opacity="0.25"/>
<rect x="57.4292" y="107.286" width="39.796" height="87.5513" rx="10.6123" fill="#1A2134"/>
<rect x="123.756" y="79.4287" width="39.796" height="115.408" rx="10.6123" fill="#1A2134"/>
<rect x="190.083" y="112.592" width="39.796" height="82.2451" rx="10.6123" fill="#1A2134"/>
<rect x="256.409" y="94.0206" width="39.796" height="100.817" rx="10.6123" fill="#1A2134"/>
<rect x="322.736" y="50.2449" width="39.796" height="144.592" rx="10.6123" fill="#833AFB"/>
<rect x="389.063" y="127.184" width="39.796" height="67.6532" rx="10.6123" fill="#1A2134"/>
<rect x="455.39" y="87.3879" width="39.796" height="107.449" rx="10.6123" fill="#1A2134"/>
<path d="M65.5911 219.948C65.3558 219.997 65.2135 219.96 65.1639 219.836L64.7182 218.313C64.6935 218.239 64.7058 218.177 64.7554 218.128C64.8049 218.078 64.8854 218.035 64.9968 217.998C65.3187 217.923 65.5849 217.781 65.7954 217.57C66.0182 217.36 66.1854 217.075 66.2968 216.716C66.4082 216.357 66.4639 215.93 66.4639 215.435V205.202C66.4639 205.053 66.532 204.979 66.6682 204.979H68.4697C68.6182 204.979 68.6925 205.053 68.6925 205.202V215.286C68.6925 216.202 68.5749 216.982 68.3397 217.626C68.1044 218.282 67.7578 218.802 67.2997 219.186C66.8539 219.57 66.2844 219.824 65.5911 219.948ZM76.5922 217.143C76.5179 217.143 76.4622 217.125 76.4251 217.088C76.4003 217.038 76.3756 216.976 76.3508 216.902C76.326 216.778 76.2951 216.568 76.2579 216.27C76.2208 215.961 76.1898 215.676 76.1651 215.416L76.0351 214.655V210.94C76.0351 210.42 75.9298 210.055 75.7194 209.845C75.5089 209.622 75.1436 209.51 74.6236 209.51C73.6827 209.51 73.2246 209.851 73.2494 210.532C73.2494 210.68 73.1813 210.755 73.0451 210.755H71.3736C71.2251 210.755 71.1446 210.643 71.1322 210.42C71.0579 209.591 71.3365 208.947 71.9679 208.489C72.6117 208.019 73.5279 207.783 74.7165 207.783C75.9298 207.783 76.8151 208.043 77.3722 208.563C77.9417 209.083 78.2265 209.888 78.2265 210.978V214.84C78.2265 215.237 78.2327 215.608 78.2451 215.955C78.2698 216.301 78.3008 216.617 78.3379 216.902C78.3627 217.063 78.2946 217.143 78.1337 217.143H76.5922ZM73.0451 217.366C72.3022 217.366 71.7327 217.143 71.3365 216.698C70.9403 216.252 70.7422 215.614 70.7422 214.785C70.7422 214.141 70.866 213.621 71.1136 213.225C71.3613 212.816 71.7636 212.5 72.3208 212.278C72.8903 212.042 73.6455 211.888 74.5865 211.813L76.3136 211.665V213.002L74.7722 213.132C74.0541 213.194 73.5589 213.33 73.2865 213.54C73.0141 213.751 72.8779 214.091 72.8779 214.562C72.8779 214.921 72.9522 215.193 73.1008 215.379C73.2494 215.552 73.4784 215.639 73.7879 215.639C74.1594 215.639 74.537 215.521 74.9208 215.286C75.3046 215.039 75.7875 214.605 76.3694 213.986L76.4436 215.472C76.0722 215.88 75.707 216.227 75.3479 216.512C74.9889 216.797 74.6236 217.007 74.2522 217.143C73.8808 217.292 73.4784 217.366 73.0451 217.366ZM86.6191 217.143C86.4705 217.143 86.3962 217.069 86.3962 216.92V211.2C86.3962 210.68 86.291 210.297 86.0805 210.049C85.87 209.801 85.5481 209.678 85.1148 209.678C84.6815 209.678 84.2543 209.808 83.8334 210.068C83.4248 210.315 82.9543 210.705 82.4219 211.238L82.3476 209.622C82.7067 209.238 83.0657 208.91 83.4248 208.638C83.7962 208.365 84.18 208.155 84.5762 208.006C84.9724 207.858 85.4057 207.783 85.8762 207.783C86.7676 207.783 87.4424 208.037 87.9005 208.545C88.3586 209.04 88.5877 209.808 88.5877 210.848V216.92C88.5877 217.069 88.5134 217.143 88.3648 217.143H86.6191ZM80.7876 217.143C80.6514 217.143 80.5833 217.069 80.5833 216.92V210.328C80.5833 209.981 80.5648 209.616 80.5276 209.232C80.5029 208.848 80.4781 208.526 80.4533 208.266C80.4286 208.093 80.5029 208.006 80.6762 208.006H82.2362C82.3105 208.006 82.3662 208.019 82.4034 208.043C82.4405 208.068 82.4653 208.124 82.4776 208.21C82.5024 208.309 82.5272 208.458 82.5519 208.656C82.5767 208.842 82.6014 209.04 82.6262 209.25C82.651 209.461 82.6634 209.647 82.6634 209.808L82.7748 210.55V216.92C82.7748 217.069 82.7005 217.143 82.5519 217.143H80.7876Z" fill="black" fill-opacity="0.25"/>
<path d="M130.769 217.143C130.633 217.143 130.565 217.069 130.565 216.92V205.202C130.565 205.053 130.633 204.979 130.769 204.979H137.882C138.018 204.979 138.086 205.053 138.086 205.202V206.725C138.086 206.873 138.018 206.948 137.882 206.948H132.793V210.235H137.176C137.312 210.235 137.38 210.309 137.38 210.458V211.925C137.38 212.061 137.312 212.129 137.176 212.129H132.793V216.92C132.793 217.069 132.719 217.143 132.57 217.143H130.769ZM143.199 217.366C141.862 217.366 140.859 217.075 140.19 216.493C139.522 215.899 139.187 215.02 139.187 213.856V211.553C139.187 210.315 139.516 209.38 140.172 208.749C140.84 208.105 141.843 207.783 143.18 207.783C144.493 207.783 145.483 208.093 146.152 208.712C146.82 209.331 147.155 210.235 147.155 211.423V212.872C147.155 213.02 147.08 213.095 146.932 213.095H141.36V213.652C141.36 214.333 141.503 214.834 141.787 215.156C142.085 215.466 142.561 215.62 143.217 215.62C143.725 215.62 144.115 215.54 144.387 215.379C144.672 215.218 144.815 214.977 144.815 214.655C144.815 214.506 144.889 214.432 145.037 214.432H146.746C146.882 214.432 146.956 214.5 146.969 214.636C147.006 215.528 146.696 216.209 146.04 216.679C145.396 217.137 144.449 217.366 143.199 217.366ZM141.36 211.609H145V211.516C145 210.835 144.852 210.334 144.555 210.012C144.257 209.69 143.806 209.529 143.199 209.529C142.567 209.529 142.103 209.696 141.806 210.03C141.509 210.352 141.36 210.854 141.36 211.535V211.609ZM153.195 217.366C152.725 217.366 152.285 217.335 151.877 217.273C151.481 217.224 151.072 217.168 150.651 217.106C150.243 217.044 149.784 216.995 149.277 216.958V204.682C149.277 204.533 149.345 204.459 149.481 204.459H151.245C151.394 204.459 151.468 204.533 151.468 204.682V215.36C151.703 215.41 151.951 215.453 152.211 215.49C152.483 215.515 152.737 215.528 152.973 215.528C153.641 215.528 154.136 215.354 154.458 215.008C154.78 214.649 154.941 214.116 154.941 213.41V211.442C154.941 210.835 154.836 210.389 154.625 210.105C154.415 209.82 154.087 209.678 153.641 209.678C153.282 209.678 152.911 209.783 152.527 209.993C152.155 210.204 151.691 210.557 151.134 211.052L151.19 209.269C151.734 208.749 152.267 208.371 152.787 208.136C153.307 207.901 153.845 207.783 154.403 207.783C155.306 207.783 155.987 208.056 156.445 208.6C156.903 209.133 157.133 209.956 157.133 211.07V213.596C157.133 214.859 156.811 215.806 156.167 216.438C155.523 217.057 154.533 217.366 153.195 217.366Z" fill="black" fill-opacity="0.25"/>
<path d="M195.938 217.143C195.876 217.143 195.826 217.125 195.789 217.088C195.752 217.038 195.734 216.982 195.734 216.92L195.975 205.202C195.975 205.053 196.049 204.979 196.198 204.979H198.594C198.705 204.979 198.785 205.035 198.835 205.146L201.936 211.906L204.982 205.146C205.044 205.035 205.131 204.979 205.242 204.979H207.638C207.774 204.979 207.842 205.053 207.842 205.202L208.102 216.92C208.102 216.982 208.084 217.038 208.046 217.088C208.009 217.125 207.954 217.143 207.879 217.143H206.134C205.985 217.143 205.911 217.069 205.911 216.92L205.762 210.922C205.75 210.427 205.756 209.931 205.781 209.436C205.806 208.929 205.824 208.433 205.836 207.95H205.781C205.583 208.433 205.372 208.922 205.149 209.418C204.939 209.9 204.716 210.377 204.481 210.848L202.196 215.658C202.147 215.757 202.06 215.806 201.936 215.806H201.862C201.751 215.806 201.67 215.757 201.621 215.658L199.318 210.792C199.083 210.334 198.86 209.863 198.649 209.38C198.439 208.885 198.241 208.409 198.055 207.95H197.999C198.024 208.421 198.043 208.91 198.055 209.418C198.067 209.913 198.067 210.402 198.055 210.885L197.906 216.92C197.906 217.069 197.838 217.143 197.702 217.143H195.938ZM215.757 217.143C215.682 217.143 215.627 217.125 215.589 217.088C215.565 217.038 215.54 216.976 215.515 216.902C215.49 216.778 215.459 216.568 215.422 216.27C215.385 215.961 215.354 215.676 215.329 215.416L215.199 214.655V210.94C215.199 210.42 215.094 210.055 214.884 209.845C214.673 209.622 214.308 209.51 213.788 209.51C212.847 209.51 212.389 209.851 212.414 210.532C212.414 210.68 212.346 210.755 212.209 210.755H210.538C210.389 210.755 210.309 210.643 210.297 210.42C210.222 209.591 210.501 208.947 211.132 208.489C211.776 208.019 212.692 207.783 213.881 207.783C215.094 207.783 215.979 208.043 216.537 208.563C217.106 209.083 217.391 209.888 217.391 210.978V214.84C217.391 215.237 217.397 215.608 217.409 215.955C217.434 216.301 217.465 216.617 217.502 216.902C217.527 217.063 217.459 217.143 217.298 217.143H215.757ZM212.209 217.366C211.467 217.366 210.897 217.143 210.501 216.698C210.105 216.252 209.907 215.614 209.907 214.785C209.907 214.141 210.03 213.621 210.278 213.225C210.526 212.816 210.928 212.5 211.485 212.278C212.055 212.042 212.81 211.888 213.751 211.813L215.478 211.665V213.002L213.937 213.132C213.218 213.194 212.723 213.33 212.451 213.54C212.178 213.751 212.042 214.091 212.042 214.562C212.042 214.921 212.117 215.193 212.265 215.379C212.414 215.552 212.643 215.639 212.952 215.639C213.324 215.639 213.701 215.521 214.085 215.286C214.469 215.039 214.952 214.605 215.534 213.986L215.608 215.472C215.237 215.88 214.871 216.227 214.512 216.512C214.153 216.797 213.788 217.007 213.417 217.143C213.045 217.292 212.643 217.366 212.209 217.366ZM219.952 217.143C219.816 217.143 219.748 217.069 219.748 216.92V210.29C219.748 209.919 219.735 209.566 219.711 209.232C219.698 208.898 219.667 208.569 219.618 208.248C219.593 208.087 219.667 208.006 219.841 208.006H221.401C221.475 208.006 221.531 208.019 221.568 208.043C221.605 208.068 221.63 208.118 221.642 208.192C221.691 208.415 221.729 208.669 221.753 208.953C221.778 209.238 221.791 209.492 221.791 209.715L221.939 210.792V216.92C221.939 217.069 221.865 217.143 221.716 217.143H219.952ZM221.735 211.609L221.623 209.715C221.883 209.343 222.174 209.015 222.496 208.73C222.831 208.433 223.165 208.204 223.499 208.043C223.846 207.87 224.161 207.783 224.446 207.783C224.657 207.783 224.824 207.802 224.948 207.839C225.01 207.864 225.053 207.895 225.078 207.932C225.102 207.969 225.115 208.019 225.115 208.08C225.14 208.378 225.146 208.699 225.133 209.046C225.133 209.38 225.115 209.696 225.078 209.993C225.065 210.068 225.034 210.123 224.985 210.16C224.948 210.185 224.886 210.191 224.799 210.179C224.725 210.167 224.632 210.154 224.521 210.142C224.409 210.129 224.291 210.123 224.168 210.123C223.895 210.123 223.611 210.185 223.313 210.309C223.029 210.42 222.75 210.588 222.478 210.81C222.218 211.033 221.97 211.299 221.735 211.609Z" fill="black" fill-opacity="0.25"/>
<path d="M262.564 217.143C262.403 217.143 262.341 217.063 262.378 216.902L266.39 205.146C266.427 205.035 266.507 204.979 266.631 204.979H269.008C269.145 204.979 269.231 205.035 269.268 205.146L273.298 216.902C273.323 216.976 273.317 217.038 273.28 217.088C273.255 217.125 273.206 217.143 273.131 217.143H271.163C271.039 217.143 270.958 217.088 270.921 216.976L268.525 209.343C268.402 208.935 268.278 208.532 268.154 208.136C268.043 207.728 267.931 207.319 267.82 206.91H267.783C267.671 207.307 267.554 207.709 267.43 208.118C267.318 208.514 267.201 208.91 267.077 209.306L264.737 216.958C264.7 217.081 264.613 217.143 264.477 217.143H262.564ZM265.108 214.599L265.535 212.779H270.048L270.494 214.599H265.108ZM279.181 217.366C278.748 217.366 278.277 217.304 277.769 217.18C277.274 217.069 276.859 216.914 276.525 216.716L276.488 214.97C276.81 215.156 277.157 215.299 277.528 215.398C277.899 215.484 278.246 215.528 278.568 215.528C279.162 215.528 279.596 215.348 279.868 214.989C280.14 214.63 280.277 214.104 280.277 213.41V211.442C280.277 210.835 280.171 210.389 279.961 210.105C279.75 209.82 279.422 209.678 278.977 209.678C278.593 209.678 278.203 209.795 277.807 210.03C277.41 210.266 276.94 210.631 276.395 211.126L276.302 209.492C276.661 209.145 277.02 208.848 277.379 208.6C277.738 208.34 278.11 208.142 278.494 208.006C278.878 207.858 279.292 207.783 279.738 207.783C280.642 207.783 281.323 208.056 281.781 208.6C282.239 209.133 282.468 209.956 282.468 211.07V213.615C282.468 214.878 282.183 215.819 281.614 216.438C281.057 217.057 280.246 217.366 279.181 217.366ZM274.817 220.579C274.68 220.579 274.612 220.505 274.612 220.356V210.216C274.612 209.894 274.6 209.56 274.575 209.213C274.55 208.867 274.519 208.545 274.482 208.248C274.47 208.087 274.544 208.006 274.705 208.006H276.265C276.401 208.006 276.482 208.074 276.507 208.21C276.531 208.309 276.556 208.439 276.581 208.6C276.606 208.749 276.624 208.904 276.637 209.065C276.649 209.226 276.655 209.356 276.655 209.455L276.804 210.495V220.356C276.804 220.505 276.729 220.579 276.581 220.579H274.817ZM284.828 217.143C284.692 217.143 284.623 217.069 284.623 216.92V210.29C284.623 209.919 284.611 209.566 284.586 209.232C284.574 208.898 284.543 208.569 284.493 208.248C284.469 208.087 284.543 208.006 284.716 208.006H286.276C286.351 208.006 286.406 208.019 286.443 208.043C286.481 208.068 286.505 208.118 286.518 208.192C286.567 208.415 286.604 208.669 286.629 208.953C286.654 209.238 286.666 209.492 286.666 209.715L286.815 210.792V216.92C286.815 217.069 286.741 217.143 286.592 217.143H284.828ZM286.611 211.609L286.499 209.715C286.759 209.343 287.05 209.015 287.372 208.73C287.706 208.433 288.041 208.204 288.375 208.043C288.722 207.87 289.037 207.783 289.322 207.783C289.533 207.783 289.7 207.802 289.823 207.839C289.885 207.864 289.929 207.895 289.953 207.932C289.978 207.969 289.991 208.019 289.991 208.08C290.015 208.378 290.022 208.699 290.009 209.046C290.009 209.38 289.991 209.696 289.953 209.993C289.941 210.068 289.91 210.123 289.861 210.16C289.823 210.185 289.762 210.191 289.675 210.179C289.601 210.167 289.508 210.154 289.396 210.142C289.285 210.129 289.167 210.123 289.043 210.123C288.771 210.123 288.486 210.185 288.189 210.309C287.904 210.42 287.626 210.588 287.353 210.81C287.093 211.033 286.846 211.299 286.611 211.609Z" fill="black" fill-opacity="0.25"/>
<path d="M327.313 217.143C327.251 217.143 327.201 217.125 327.164 217.088C327.127 217.038 327.108 216.982 327.108 216.92L327.35 205.202C327.35 205.053 327.424 204.979 327.573 204.979H329.968C330.08 204.979 330.16 205.035 330.21 205.146L333.311 211.906L336.357 205.146C336.419 205.035 336.506 204.979 336.617 204.979H339.013C339.149 204.979 339.217 205.053 339.217 205.202L339.477 216.92C339.477 216.982 339.458 217.038 339.421 217.088C339.384 217.125 339.328 217.143 339.254 217.143H337.508C337.36 217.143 337.286 217.069 337.286 216.92L337.137 210.922C337.125 210.427 337.131 209.931 337.156 209.436C337.18 208.929 337.199 208.433 337.211 207.95H337.156C336.957 208.433 336.747 208.922 336.524 209.418C336.314 209.9 336.091 210.377 335.856 210.848L333.571 215.658C333.522 215.757 333.435 215.806 333.311 215.806H333.237C333.126 215.806 333.045 215.757 332.996 215.658L330.693 210.792C330.457 210.334 330.235 209.863 330.024 209.38C329.814 208.885 329.616 208.409 329.43 207.95H329.374C329.399 208.421 329.417 208.91 329.43 209.418C329.442 209.913 329.442 210.402 329.43 210.885L329.281 216.92C329.281 217.069 329.213 217.143 329.077 217.143H327.313ZM347.131 217.143C347.057 217.143 347.001 217.125 346.964 217.088C346.939 217.038 346.915 216.976 346.89 216.902C346.865 216.778 346.834 216.568 346.797 216.27C346.76 215.961 346.729 215.676 346.704 215.416L346.574 214.655V210.94C346.574 210.42 346.469 210.055 346.259 209.845C346.048 209.622 345.683 209.51 345.163 209.51C344.222 209.51 343.764 209.851 343.789 210.532C343.789 210.68 343.72 210.755 343.584 210.755H341.913C341.764 210.755 341.684 210.643 341.671 210.42C341.597 209.591 341.876 208.947 342.507 208.489C343.151 208.019 344.067 207.783 345.256 207.783C346.469 207.783 347.354 208.043 347.911 208.563C348.481 209.083 348.766 209.888 348.766 210.978V214.84C348.766 215.237 348.772 215.608 348.784 215.955C348.809 216.301 348.84 216.617 348.877 216.902C348.902 217.063 348.834 217.143 348.673 217.143H347.131ZM343.584 217.366C342.841 217.366 342.272 217.143 341.876 216.698C341.479 216.252 341.281 215.614 341.281 214.785C341.281 214.141 341.405 213.621 341.653 213.225C341.9 212.816 342.303 212.5 342.86 212.278C343.429 212.042 344.185 211.888 345.126 211.813L346.853 211.665V213.002L345.311 213.132C344.593 213.194 344.098 213.33 343.826 213.54C343.553 213.751 343.417 214.091 343.417 214.562C343.417 214.921 343.491 215.193 343.64 215.379C343.789 215.552 344.018 215.639 344.327 215.639C344.699 215.639 345.076 215.521 345.46 215.286C345.844 215.039 346.327 214.605 346.909 213.986L346.983 215.472C346.611 215.88 346.246 216.227 345.887 216.512C345.528 216.797 345.163 217.007 344.791 217.143C344.42 217.292 344.018 217.366 343.584 217.366ZM352.426 220.579C352.253 220.579 352.204 220.492 352.278 220.319L353.522 217.069L350.124 208.266C350.062 208.093 350.117 208.006 350.291 208.006H352.204C352.327 208.006 352.408 208.068 352.445 208.192L353.782 211.999C353.918 212.383 354.048 212.791 354.172 213.225C354.296 213.646 354.414 214.073 354.525 214.506H354.562C354.686 214.073 354.81 213.646 354.934 213.225C355.057 212.804 355.187 212.395 355.324 211.999L356.661 208.192C356.698 208.068 356.778 208.006 356.902 208.006H358.759C358.834 208.006 358.889 208.031 358.926 208.08C358.964 208.13 358.97 208.192 358.945 208.266L354.395 220.412C354.345 220.523 354.265 220.579 354.154 220.579H352.426Z" fill="black" fill-opacity="0.25"/>
<path d="M396.826 219.948C396.59 219.997 396.448 219.96 396.398 219.836L395.953 218.313C395.928 218.239 395.94 218.177 395.99 218.128C396.039 218.078 396.12 218.035 396.231 217.998C396.553 217.923 396.819 217.781 397.03 217.57C397.253 217.36 397.42 217.075 397.531 216.716C397.643 216.357 397.698 215.93 397.698 215.435V205.202C397.698 205.053 397.767 204.979 397.903 204.979H399.704C399.853 204.979 399.927 205.053 399.927 205.202V215.286C399.927 216.202 399.809 216.982 399.574 217.626C399.339 218.282 398.992 218.802 398.534 219.186C398.088 219.57 397.519 219.824 396.826 219.948ZM404.966 217.366C404.149 217.366 403.53 217.112 403.109 216.605C402.688 216.085 402.478 215.317 402.478 214.302V208.229C402.478 208.08 402.546 208.006 402.682 208.006H404.446C404.595 208.006 404.669 208.08 404.669 208.229V213.949C404.669 214.469 404.756 214.853 404.929 215.1C405.115 215.348 405.4 215.472 405.783 215.472C406.192 215.472 406.601 215.342 407.009 215.082C407.43 214.809 407.901 214.407 408.421 213.875L408.495 215.509C408.136 215.868 407.771 216.19 407.399 216.475C407.04 216.747 406.656 216.964 406.248 217.125C405.852 217.286 405.424 217.366 404.966 217.366ZM408.643 217.143C408.569 217.143 408.507 217.131 408.458 217.106C408.421 217.069 408.396 217.013 408.383 216.939C408.346 216.716 408.309 216.481 408.272 216.233C408.247 215.986 408.229 215.738 408.216 215.49L408.049 214.543V208.229C408.049 208.08 408.123 208.006 408.272 208.006H410.036C410.172 208.006 410.241 208.08 410.241 208.229V214.822C410.241 215.181 410.247 215.54 410.259 215.899C410.284 216.246 410.321 216.586 410.371 216.92C410.395 217.069 410.321 217.143 410.148 217.143H408.643ZM418.652 217.143C418.503 217.143 418.429 217.069 418.429 216.92V211.2C418.429 210.68 418.323 210.297 418.113 210.049C417.903 209.801 417.581 209.678 417.147 209.678C416.714 209.678 416.287 209.808 415.866 210.068C415.457 210.315 414.987 210.705 414.454 211.238L414.38 209.622C414.739 209.238 415.098 208.91 415.457 208.638C415.829 208.365 416.213 208.155 416.609 208.006C417.005 207.858 417.438 207.783 417.909 207.783C418.8 207.783 419.475 208.037 419.933 208.545C420.391 209.04 420.62 209.808 420.62 210.848V216.92C420.62 217.069 420.546 217.143 420.397 217.143H418.652ZM412.82 217.143C412.684 217.143 412.616 217.069 412.616 216.92V210.328C412.616 209.981 412.597 209.616 412.56 209.232C412.535 208.848 412.511 208.526 412.486 208.266C412.461 208.093 412.535 208.006 412.709 208.006H414.269C414.343 208.006 414.399 208.019 414.436 208.043C414.473 208.068 414.498 208.124 414.51 208.21C414.535 208.309 414.56 208.458 414.584 208.656C414.609 208.842 414.634 209.04 414.659 209.25C414.683 209.461 414.696 209.647 414.696 209.808L414.807 210.55V216.92C414.807 217.069 414.733 217.143 414.584 217.143H412.82Z" fill="black" fill-opacity="0.25"/>
<path d="M466.054 219.948C465.819 219.997 465.677 219.96 465.627 219.836L465.181 218.313C465.157 218.239 465.169 218.177 465.218 218.128C465.268 218.078 465.348 218.035 465.46 217.998C465.782 217.923 466.048 217.781 466.258 217.57C466.481 217.36 466.648 217.075 466.76 216.716C466.871 216.357 466.927 215.93 466.927 215.435V205.202C466.927 205.053 466.995 204.979 467.131 204.979H468.933C469.081 204.979 469.156 205.053 469.156 205.202V215.286C469.156 216.202 469.038 216.982 468.803 217.626C468.568 218.282 468.221 218.802 467.763 219.186C467.317 219.57 466.748 219.824 466.054 219.948ZM474.195 217.366C473.378 217.366 472.759 217.112 472.338 216.605C471.917 216.085 471.706 215.317 471.706 214.302V208.229C471.706 208.08 471.774 208.006 471.911 208.006H473.675C473.823 208.006 473.898 208.08 473.898 208.229V213.949C473.898 214.469 473.984 214.853 474.158 215.1C474.343 215.348 474.628 215.472 475.012 215.472C475.421 215.472 475.829 215.342 476.238 215.082C476.659 214.809 477.129 214.407 477.649 213.875L477.723 215.509C477.364 215.868 476.999 216.19 476.628 216.475C476.269 216.747 475.885 216.964 475.476 217.125C475.08 217.286 474.653 217.366 474.195 217.366ZM477.872 217.143C477.798 217.143 477.736 217.131 477.686 217.106C477.649 217.069 477.624 217.013 477.612 216.939C477.575 216.716 477.538 216.481 477.501 216.233C477.476 215.986 477.457 215.738 477.445 215.49L477.278 214.543V208.229C477.278 208.08 477.352 208.006 477.501 208.006H479.265C479.401 208.006 479.469 208.08 479.469 208.229V214.822C479.469 215.181 479.475 215.54 479.488 215.899C479.513 216.246 479.55 216.586 479.599 216.92C479.624 217.069 479.55 217.143 479.376 217.143H477.872ZM482.049 217.143C481.913 217.143 481.844 217.069 481.844 216.92V204.682C481.844 204.533 481.913 204.459 482.049 204.459H483.813C483.962 204.459 484.036 204.533 484.036 204.682V216.92C484.036 217.069 483.962 217.143 483.813 217.143H482.049Z" fill="black" fill-opacity="0.25"/>
</svg>
