<svg width="667" height="294" viewBox="0 0 667 294" fill="none" xmlns="http://www.w3.org/2000/svg">
<g filter="url(#filter0_d_16_109)">
<rect x="502.017" y="187.392" width="56.5568" height="56.5568" rx="12.5682" fill="white"/>
<path fill-rule="evenodd" clip-rule="evenodd" d="M545.292 204.847C545.734 205.289 545.982 205.889 545.982 206.514C545.982 207.138 545.734 207.738 545.292 208.18L527.629 225.843C527.396 226.076 527.119 226.261 526.814 226.388C526.509 226.514 526.182 226.579 525.852 226.579C525.521 226.579 525.195 226.514 524.889 226.388C524.584 226.261 524.307 226.076 524.074 225.843L515.298 217.068C515.073 216.851 514.894 216.591 514.77 216.304C514.647 216.016 514.582 215.707 514.579 215.394C514.576 215.081 514.636 214.771 514.754 214.481C514.873 214.191 515.048 213.928 515.269 213.707C515.49 213.486 515.753 213.311 516.043 213.192C516.333 213.074 516.643 213.014 516.956 213.017C517.269 213.02 517.578 213.085 517.865 213.208C518.153 213.332 518.413 213.511 518.63 213.736L525.851 220.957L541.958 204.847C542.177 204.629 542.437 204.455 542.723 204.336C543.009 204.218 543.316 204.157 543.625 204.157C543.935 204.157 544.241 204.218 544.527 204.336C544.813 204.455 545.073 204.629 545.292 204.847Z" fill="#833AFB"/>
</g>
<g filter="url(#filter1_d_16_109)">
<rect x="71.5568" y="45.9998" width="56.9127" height="57.037" rx="12.5682" fill="white"/>
<rect x="88.3326" y="65.9797" width="4.71307" height="29.8494" rx="2.35653" transform="rotate(-45 88.3326 65.9797)" fill="#833AFB"/>
<rect x="108.756" y="62.8376" width="4.71307" height="29.8494" rx="2.35653" transform="rotate(45 108.756 62.8376)" fill="#833AFB"/>
</g>
<g filter="url(#filter2_d_16_109)">
<rect x="334" y="11" width="56.9127" height="57.037" rx="12.5682" fill="white"/>
<path d="M372.956 33.5186V24.5186M372.956 24.5186L377.456 29.0186M372.956 24.5186L368.456 29.0186" stroke="#833AFB" stroke-width="3" stroke-linecap="round" stroke-linejoin="round"/>
<path d="M363.956 24.5926C363.463 24.5436 362.963 24.5186 362.456 24.5186C354.172 24.5186 347.456 31.2343 347.456 39.5186C347.456 42.2507 348.187 44.8122 349.463 47.0186L348.206 53.7686L354.956 52.5119C357.163 53.7881 359.724 54.5186 362.456 54.5186C370.741 54.5186 377.456 47.8028 377.456 39.5186C377.456 39.0123 377.431 38.5119 377.382 38.0186" stroke="#833AFB" stroke-width="3" stroke-linecap="round" stroke-linejoin="round"/>
</g>
<g filter="url(#filter3_d_16_109)">
<rect x="217" y="217" width="56.9127" height="57.037" rx="12.5682" fill="white"/>
<path d="M239.456 238.019H233.456C231.8 238.019 230.456 239.362 230.456 241.019V256.019C230.456 257.675 231.8 259.019 233.456 259.019H257.456C259.113 259.019 260.456 257.675 260.456 256.019V241.019C260.456 239.362 259.113 238.019 257.456 238.019H251.456M239.456 238.019V232.919C239.456 232.421 239.859 232.019 240.356 232.019H250.556C251.053 232.019 251.456 232.421 251.456 232.919V238.019M239.456 238.019H251.456" stroke="#833AFB" stroke-width="3"/>
</g>
<g filter="url(#filter4_d_16_109)">
<rect x="594.707" y="45.9998" width="56.9127" height="57.037" rx="12.5682" fill="white"/>
<path d="M620.5 77.9118C620.224 77.9118 620.086 77.7736 620.086 77.4971V76.0266C620.086 75.1971 620.299 74.4682 620.727 73.8397C621.179 73.1862 621.72 72.5955 622.348 72.0676C622.976 71.5398 623.605 71.0119 624.233 70.484C624.887 69.9562 625.427 69.4032 625.854 68.825C626.282 68.2218 626.495 67.5557 626.495 66.8267C626.495 66.0726 626.219 65.507 625.666 65.13C625.138 64.753 624.334 64.5644 623.253 64.5644C621.946 64.5644 621.041 64.8661 620.538 65.4693C620.035 66.0475 619.797 66.8895 619.822 67.9955C619.822 68.3223 619.683 68.4857 619.407 68.4857H616.014C615.838 68.4857 615.712 68.4354 615.637 68.3349C615.586 68.2092 615.561 68.071 615.561 67.9201C615.486 65.5573 616.089 63.7978 617.371 62.6415C618.678 61.4601 620.676 60.8694 623.366 60.8694C625.955 60.8694 627.865 61.3344 629.097 62.2645C630.354 63.1945 630.982 64.5393 630.982 66.2988C630.982 67.4551 630.756 68.4606 630.304 69.3152C629.876 70.1698 629.348 70.9239 628.72 71.5775C628.092 72.2059 627.451 72.784 626.797 73.3119C626.169 73.8397 625.628 74.3425 625.176 74.8201C624.748 75.2977 624.522 75.8004 624.497 76.3282V77.4971C624.497 77.7736 624.346 77.9118 624.045 77.9118H620.5ZM622.461 86.4708C621.531 86.4708 620.827 86.2571 620.35 85.8298C619.897 85.3773 619.671 84.7489 619.671 83.9446V83.3413C619.671 82.5118 619.897 81.8834 620.35 81.4561C620.827 81.0036 621.531 80.7774 622.461 80.7774C623.391 80.7774 624.082 81.0036 624.535 81.4561C624.987 81.8834 625.213 82.5118 625.213 83.3413V83.9446C625.213 84.7489 624.987 85.3773 624.535 85.8298C624.082 86.2571 623.391 86.4708 622.461 86.4708Z" fill="#833AFB"/>
</g>
<g filter="url(#filter5_d_16_109)">
<rect x="15" y="188.963" width="56.9127" height="57.037" rx="12.5682" fill="white"/>
<path d="M46.8194 220.045C46.0402 220.045 45.3741 219.995 44.8211 219.894C44.2932 219.769 43.803 219.63 43.3506 219.48C42.9233 219.329 42.4457 219.203 41.9178 219.103C41.4151 219.002 40.7867 218.952 40.0326 218.952C39.2785 218.952 38.4993 219.052 37.6949 219.253C36.8905 219.455 36.2747 219.618 35.8474 219.744C35.5709 219.819 35.4326 219.718 35.4326 219.442V216.652C35.4326 216.451 35.4955 216.325 35.6212 216.275C35.9479 216.124 36.4884 215.923 37.2424 215.672C38.0217 215.395 38.9769 215.257 40.108 215.257C40.8872 215.257 41.5408 215.32 42.0686 215.445C42.6216 215.546 43.1244 215.672 43.5768 215.822C44.0293 215.973 44.5069 216.111 45.0096 216.237C45.5374 216.338 46.1659 216.388 46.8948 216.388C47.6489 216.388 48.4281 216.275 49.2325 216.049C50.062 215.822 50.6778 215.659 51.08 215.558C51.3565 215.483 51.4948 215.584 51.4948 215.86V218.65C51.4948 218.876 51.4068 219.027 51.2308 219.103C50.9041 219.228 50.3511 219.417 49.5718 219.668C48.8177 219.92 47.9003 220.045 46.8194 220.045Z" fill="#833AFB"/>
</g>
<path d="M525.32 187.392C525.32 189.705 527.196 191.581 529.51 191.581C531.823 191.581 533.699 189.705 533.699 187.392C533.699 185.078 531.823 183.202 529.51 183.202C527.196 183.202 525.32 185.078 525.32 187.392ZM466.669 135.548C481.987 135.548 493.523 135.892 502.225 137.136C510.933 138.38 516.686 140.509 520.539 143.986C524.375 147.448 526.439 152.348 527.531 159.405C528.624 166.477 528.724 175.593 528.724 187.392H530.295C530.295 175.625 530.199 166.38 529.083 159.165C527.965 151.935 525.807 146.624 521.592 142.82C517.393 139.031 511.266 136.84 502.447 135.58C493.622 134.32 481.985 133.977 466.669 133.977L466.669 135.548Z" fill="#833AFB"/>
<path d="M274 242.811C271.686 242.811 269.811 244.686 269.811 247C269.811 249.314 271.686 251.189 274 251.189C276.314 251.189 278.189 249.314 278.189 247C278.189 244.686 276.314 242.811 274 242.811ZM338.844 159C338.844 174.326 338.772 187.444 337.663 198.52C336.554 209.598 334.413 218.553 330.323 225.581C322.203 239.537 306.191 246.214 274 246.214L274 247.786C306.309 247.786 323.112 241.098 331.681 226.371C335.936 219.058 338.109 209.843 339.227 198.676C340.345 187.508 340.415 174.309 340.415 159L338.844 159Z" fill="#833AFB"/>
<path d="M334 45.1894C336.314 45.1894 338.189 43.3137 338.189 41C338.189 38.6863 336.314 36.8106 334 36.8106C331.686 36.8106 329.811 38.6863 329.811 41C329.811 43.3137 331.686 45.1894 334 45.1894ZM268.786 110C268.786 94.6695 268.88 82.7499 270.022 73.4664C271.163 64.1828 273.339 57.6617 277.402 53.0426C281.456 48.4343 287.492 45.6044 296.618 43.9379C305.752 42.2699 317.875 41.7855 334 41.7855L334 40.2145C317.875 40.2145 305.623 40.6963 296.335 42.3924C287.039 44.0901 280.606 47.022 276.223 52.005C271.849 56.9772 269.618 63.8767 268.463 73.2747C267.307 82.6727 267.214 94.6956 267.214 110L268.786 110Z" fill="#833AFB"/>
<path d="M103.239 102.556C103.239 100.242 101.363 98.3665 99.0497 98.3665C96.7359 98.3665 94.8603 100.242 94.8603 102.556C94.8603 104.87 96.7359 106.745 99.0497 106.745C101.363 106.745 103.239 104.87 103.239 102.556ZM184.67 132.405C169.37 132.405 156.289 132.848 145.439 132.921C134.538 132.995 125.828 132.698 119.048 131.245C112.288 129.796 107.542 127.219 104.456 122.8C101.351 118.354 99.8352 111.918 99.8352 102.556H98.2642C98.2642 112.046 99.7922 118.866 103.168 123.699C106.562 128.559 111.733 131.284 118.719 132.781C125.686 134.274 134.552 134.566 145.449 134.492C156.397 134.418 169.336 133.976 184.67 133.976L184.67 132.405Z" fill="#833AFB"/>
<path d="M587.637 134.763L587.709 133.98L587.673 133.977H587.637V134.763ZM618.011 102.557C618.011 104.87 619.886 106.746 622.2 106.746C624.514 106.746 626.389 104.87 626.389 102.557C626.389 100.243 624.514 98.3672 622.2 98.3672C619.886 98.3672 618.011 100.243 618.011 102.557ZM466.669 135.548H587.637V133.977H466.669V135.548ZM587.566 135.545C593.452 136.08 602.28 135.083 609.665 130.317C617.102 125.516 622.985 116.948 622.985 102.557H621.414C621.414 116.444 615.777 124.502 608.813 128.997C601.797 133.525 593.344 134.493 587.709 133.98L587.566 135.545Z" fill="#833AFB"/>
<path d="M45.1113 188.963C45.1113 186.649 43.2356 184.773 40.9219 184.773C38.6081 184.773 36.7325 186.649 36.7325 188.963C36.7325 191.276 38.6081 193.152 40.9219 193.152C43.2356 193.152 45.1113 191.276 45.1113 188.963ZM184.67 132.406H76.2698V133.977H184.67V132.406ZM76.2698 132.406C68.2682 132.406 59.1763 134.612 52.1071 142.893C45.0609 151.147 40.1363 165.309 40.1363 188.963H41.7074C41.7074 165.486 46.6016 151.762 53.302 143.913C59.9792 136.091 68.5613 133.977 76.2698 133.977V132.406Z" fill="#833AFB"/>
<g filter="url(#filter6_d_16_109)">
<rect x="184.67" y="108.841" width="282.784" height="50.2727" rx="18.8523" fill="#F4F4F6"/>
</g>
<defs>
<filter id="filter0_d_16_109" x="487.017" y="176.392" width="86.5568" height="86.5569" filterUnits="userSpaceOnUse" color-interpolation-filters="sRGB">
<feFlood flood-opacity="0" result="BackgroundImageFix"/>
<feColorMatrix in="SourceAlpha" type="matrix" values="0 0 0 0 0 0 0 0 0 0 0 0 0 0 0 0 0 0 127 0" result="hardAlpha"/>
<feOffset dy="4"/>
<feGaussianBlur stdDeviation="7.5"/>
<feComposite in2="hardAlpha" operator="out"/>
<feColorMatrix type="matrix" values="0 0 0 0 0.333333 0 0 0 0 0.431373 0 0 0 0 0.690196 0 0 0 0.15 0"/>
<feBlend mode="normal" in2="BackgroundImageFix" result="effect1_dropShadow_16_109"/>
<feBlend mode="normal" in="SourceGraphic" in2="effect1_dropShadow_16_109" result="shape"/>
</filter>
<filter id="filter1_d_16_109" x="56.5568" y="34.9998" width="86.9127" height="87.0371" filterUnits="userSpaceOnUse" color-interpolation-filters="sRGB">
<feFlood flood-opacity="0" result="BackgroundImageFix"/>
<feColorMatrix in="SourceAlpha" type="matrix" values="0 0 0 0 0 0 0 0 0 0 0 0 0 0 0 0 0 0 127 0" result="hardAlpha"/>
<feOffset dy="4"/>
<feGaussianBlur stdDeviation="7.5"/>
<feComposite in2="hardAlpha" operator="out"/>
<feColorMatrix type="matrix" values="0 0 0 0 0.333333 0 0 0 0 0.431373 0 0 0 0 0.690196 0 0 0 0.15 0"/>
<feBlend mode="normal" in2="BackgroundImageFix" result="effect1_dropShadow_16_109"/>
<feBlend mode="normal" in="SourceGraphic" in2="effect1_dropShadow_16_109" result="shape"/>
</filter>
<filter id="filter2_d_16_109" x="319" y="0" width="86.9127" height="87.0371" filterUnits="userSpaceOnUse" color-interpolation-filters="sRGB">
<feFlood flood-opacity="0" result="BackgroundImageFix"/>
<feColorMatrix in="SourceAlpha" type="matrix" values="0 0 0 0 0 0 0 0 0 0 0 0 0 0 0 0 0 0 127 0" result="hardAlpha"/>
<feOffset dy="4"/>
<feGaussianBlur stdDeviation="7.5"/>
<feComposite in2="hardAlpha" operator="out"/>
<feColorMatrix type="matrix" values="0 0 0 0 0.333333 0 0 0 0 0.431373 0 0 0 0 0.690196 0 0 0 0.15 0"/>
<feBlend mode="normal" in2="BackgroundImageFix" result="effect1_dropShadow_16_109"/>
<feBlend mode="normal" in="SourceGraphic" in2="effect1_dropShadow_16_109" result="shape"/>
</filter>
<filter id="filter3_d_16_109" x="202" y="206" width="86.9127" height="87.0371" filterUnits="userSpaceOnUse" color-interpolation-filters="sRGB">
<feFlood flood-opacity="0" result="BackgroundImageFix"/>
<feColorMatrix in="SourceAlpha" type="matrix" values="0 0 0 0 0 0 0 0 0 0 0 0 0 0 0 0 0 0 127 0" result="hardAlpha"/>
<feOffset dy="4"/>
<feGaussianBlur stdDeviation="7.5"/>
<feComposite in2="hardAlpha" operator="out"/>
<feColorMatrix type="matrix" values="0 0 0 0 0.333333 0 0 0 0 0.431373 0 0 0 0 0.690196 0 0 0 0.15 0"/>
<feBlend mode="normal" in2="BackgroundImageFix" result="effect1_dropShadow_16_109"/>
<feBlend mode="normal" in="SourceGraphic" in2="effect1_dropShadow_16_109" result="shape"/>
</filter>
<filter id="filter4_d_16_109" x="579.707" y="34.9998" width="86.9127" height="87.0371" filterUnits="userSpaceOnUse" color-interpolation-filters="sRGB">
<feFlood flood-opacity="0" result="BackgroundImageFix"/>
<feColorMatrix in="SourceAlpha" type="matrix" values="0 0 0 0 0 0 0 0 0 0 0 0 0 0 0 0 0 0 127 0" result="hardAlpha"/>
<feOffset dy="4"/>
<feGaussianBlur stdDeviation="7.5"/>
<feComposite in2="hardAlpha" operator="out"/>
<feColorMatrix type="matrix" values="0 0 0 0 0.333333 0 0 0 0 0.431373 0 0 0 0 0.690196 0 0 0 0.15 0"/>
<feBlend mode="normal" in2="BackgroundImageFix" result="effect1_dropShadow_16_109"/>
<feBlend mode="normal" in="SourceGraphic" in2="effect1_dropShadow_16_109" result="shape"/>
</filter>
<filter id="filter5_d_16_109" x="-3.05176e-05" y="177.963" width="86.9128" height="87.0371" filterUnits="userSpaceOnUse" color-interpolation-filters="sRGB">
<feFlood flood-opacity="0" result="BackgroundImageFix"/>
<feColorMatrix in="SourceAlpha" type="matrix" values="0 0 0 0 0 0 0 0 0 0 0 0 0 0 0 0 0 0 127 0" result="hardAlpha"/>
<feOffset dy="4"/>
<feGaussianBlur stdDeviation="7.5"/>
<feComposite in2="hardAlpha" operator="out"/>
<feColorMatrix type="matrix" values="0 0 0 0 0.333333 0 0 0 0 0.431373 0 0 0 0 0.690196 0 0 0 0.15 0"/>
<feBlend mode="normal" in2="BackgroundImageFix" result="effect1_dropShadow_16_109"/>
<feBlend mode="normal" in="SourceGraphic" in2="effect1_dropShadow_16_109" result="shape"/>
</filter>
<filter id="filter6_d_16_109" x="169.67" y="97.8406" width="312.784" height="80.2727" filterUnits="userSpaceOnUse" color-interpolation-filters="sRGB">
<feFlood flood-opacity="0" result="BackgroundImageFix"/>
<feColorMatrix in="SourceAlpha" type="matrix" values="0 0 0 0 0 0 0 0 0 0 0 0 0 0 0 0 0 0 127 0" result="hardAlpha"/>
<feOffset dy="4"/>
<feGaussianBlur stdDeviation="7.5"/>
<feComposite in2="hardAlpha" operator="out"/>
<feColorMatrix type="matrix" values="0 0 0 0 0.333333 0 0 0 0 0.431373 0 0 0 0 0.690196 0 0 0 0.15 0"/>
<feBlend mode="normal" in2="BackgroundImageFix" result="effect1_dropShadow_16_109"/>
<feBlend mode="normal" in="SourceGraphic" in2="effect1_dropShadow_16_109" result="shape"/>
</filter>
</defs>
</svg>
