<svg width="32" height="32" viewBox="0 0 32 32" fill="none" xmlns="http://www.w3.org/2000/svg">
<rect x="1" y="1" width="30" height="30" rx="15" fill="#833AFB" fill-opacity="0.15"/>
<rect x="1" y="1" width="30" height="30" rx="15" stroke="#833AFB" stroke-width="2"/>
<path d="M15 23C15 23.5523 15.4477 24 16 24C16.5523 24 17 23.5523 17 23H15ZM16.7071 8.29289C16.3166 7.90237 15.6834 7.90237 15.2929 8.29289L8.92893 14.6569C8.53841 15.0474 8.53841 15.6805 8.92893 16.0711C9.31946 16.4616 9.95262 16.4616 10.3431 16.0711L16 10.4142L21.6569 16.0711C22.0474 16.4616 22.6805 16.4616 23.0711 16.0711C23.4616 15.6805 23.4616 15.0474 23.0711 14.6569L16.7071 8.29289ZM17 23V9H15V23H17Z" fill="#833AFB"/>
</svg>
