<svg width="39" height="37" viewBox="0 0 39 37" fill="none" xmlns="http://www.w3.org/2000/svg">
<g clip-path="url(#clip0_66_116)">
<path d="M17 8.5H20L20.5 18.5L20 28.5H17V23.5L16 21.5L17 18.5L16 16L17 13.5V8.5Z" fill="#833AFB"/>
<rect x="21.83" y="11.5" width="2" height="14" fill="#833AFB"/>
<path fill-rule="evenodd" clip-rule="evenodd" d="M5.24201 25.5062C5.50294 24.3608 6.07953 23.3374 6.88421 22.5374C7.99201 21.4296 9.52013 20.7436 11.2078 20.7436C11.4609 20.7436 11.6625 20.9452 11.6625 21.1983C11.6625 21.4514 11.4609 21.653 11.2078 21.653C9.76717 21.653 8.46717 22.2342 7.52345 23.1764C6.57969 24.1202 6.00001 25.4202 6.00001 26.8608C6.00001 28.3014 6.58125 29.6014 7.52345 30.5452C8.46721 31.4889 9.76721 32.0686 11.2078 32.0686C11.3297 32.0686 11.4437 32.0686 11.5484 32.0608H11.5562C11.6828 32.053 11.7969 32.0405 11.9062 32.0264C12.1547 31.992 12.3828 32.1702 12.4156 32.4186C12.5547 33.467 13.0812 34.3983 13.8437 35.0624C14.5937 35.7186 15.5781 36.1186 16.6484 36.1186C17.8234 36.1186 18.889 35.6389 19.6625 34.8639C20.4375 34.0889 20.9172 33.0233 20.9172 31.8498V5.15304C20.9172 3.97804 20.4375 2.9124 19.6625 2.13896C18.8875 1.36396 17.8218 0.884277 16.6484 0.884277C15.4734 0.884277 14.4375 1.35148 13.6672 2.1046C12.8968 2.8546 12.4125 3.89052 12.3781 5.03584C12.3781 5.09521 12.3703 5.15771 12.3437 5.21709C12.2515 5.44833 11.9859 5.5624 11.7546 5.47021C11.514 5.37333 11.2624 5.29833 11.0015 5.24677C10.7484 5.19677 10.4843 5.17021 10.214 5.17021C9.06867 5.17021 8.02807 5.63269 7.27963 6.38741C6.52963 7.13741 6.06243 8.17649 6.06243 9.32177C6.06243 9.62021 6.09212 9.91085 6.15149 10.189C6.18899 10.3608 6.23587 10.5296 6.29056 10.6905C6.65618 10.6405 7.0312 10.614 7.41088 10.614C7.764 10.614 8.11868 10.639 8.4718 10.6858C8.82961 10.7327 9.1796 10.803 9.51244 10.8921C9.75619 10.9546 9.89994 11.2077 9.83275 11.4483C9.77025 11.6921 9.52181 11.8358 9.27651 11.7686C8.9687 11.6843 8.66243 11.6249 8.35463 11.5827C8.05151 11.5452 7.73587 11.5233 7.40775 11.5233C5.42807 11.5233 3.63899 12.3233 2.34215 13.6202C1.04527 14.9171 0.24527 16.7061 0.24527 18.6858C0.24527 20.353 0.81403 21.8858 1.76559 23.0982C2.64215 24.2185 3.84527 25.0685 5.23435 25.5107L5.24201 25.5062ZM21.828 12.7186V24.281H29.07C29.1544 24.281 29.2294 24.2466 29.2841 24.1919C29.3388 24.1372 29.3731 24.0606 29.3731 23.9778V13.0214C29.3731 12.9371 29.3388 12.8621 29.2841 12.8074C29.2294 12.7527 29.1528 12.7183 29.07 12.7183L21.828 12.7186ZM21.828 11.0514H29.9796C30.2702 11.0514 30.5358 11.1685 30.7296 11.3623C30.9234 11.556 31.0405 11.8217 31.0405 12.1123V24.8875C31.0405 25.1781 30.9234 25.4437 30.7296 25.6375C30.5359 25.8313 30.2702 25.9484 29.9796 25.9484H21.828V25.1906H29.07C29.4028 25.1906 29.7059 25.0563 29.9294 24.8375C30.1528 24.6188 30.2825 24.3156 30.2825 23.9781V13.0217C30.2825 12.6889 30.1481 12.3858 29.9294 12.1624C29.7106 11.9436 29.4075 11.8093 29.07 11.8093H21.828V11.0514ZM16.8716 21.831C16.6185 21.831 16.4169 21.6294 16.4169 21.3763C16.4169 21.1232 16.6185 20.9216 16.8716 20.9216H19.6044C19.8575 20.9216 20.0591 21.1232 20.0591 21.3763C20.0591 21.6294 19.8575 21.831 19.6044 21.831H16.8716ZM16.8841 16.1762C16.631 16.1762 16.4294 15.9746 16.4294 15.7215C16.4294 15.4684 16.631 15.2668 16.8841 15.2668H19.6044C19.8576 15.2668 20.0591 15.4684 20.0591 15.7215C20.0591 15.9746 19.8575 16.1762 19.6044 16.1762H16.8841ZM14.0841 17.9699C14.2185 17.8355 14.4075 17.7512 14.6185 17.7512C14.8294 17.7512 15.0138 17.8355 15.1528 17.9699C15.2919 18.1043 15.3716 18.2934 15.3716 18.5043C15.3716 18.7152 15.2872 18.8996 15.1528 19.0386C15.0185 19.1777 14.8294 19.2574 14.6185 19.2574C14.4075 19.2574 14.2232 19.173 14.0841 19.0386C13.9497 18.9043 13.8654 18.7152 13.8654 18.5043C13.8654 18.2933 13.9497 18.109 14.0841 17.9699ZM12.956 18.5043C12.956 18.0449 13.1419 17.6277 13.4451 17.3293C13.7435 17.0308 14.1607 16.8402 14.6201 16.8402C15.0794 16.8402 15.4966 17.0261 15.7951 17.3293C15.9935 17.5277 16.1404 17.7762 16.2201 18.0496H19.6091C19.8623 18.0496 20.0638 18.2512 20.0638 18.5043C20.0638 18.7574 19.8623 18.959 19.6091 18.959H16.2201C16.1404 19.2371 15.9919 19.4808 15.7951 19.6793C15.4966 19.9777 15.0794 20.1684 14.6201 20.1684C14.1607 20.1684 13.7435 19.9824 13.4451 19.6793C13.1466 19.3808 12.956 18.9636 12.956 18.5043ZM15.0185 10.1091C15.1153 10.0122 15.2466 9.95282 15.3935 9.95282C15.5403 9.95282 15.6763 10.0122 15.7685 10.1091C15.8653 10.206 15.9247 10.3372 15.9247 10.4841C15.9247 10.631 15.8653 10.7669 15.7685 10.8591C15.6716 10.9513 15.5403 11.0153 15.3935 11.0153C15.2466 11.0153 15.1107 10.9559 15.0185 10.8591C14.9216 10.7622 14.8622 10.631 14.8622 10.4841C14.8622 10.3372 14.9216 10.2013 15.0185 10.1091ZM13.9528 10.4841C13.9528 10.0841 14.1122 9.72628 14.3731 9.46532C14.6341 9.20438 14.9966 9.045 15.3919 9.045C15.7872 9.045 16.1497 9.20437 16.4107 9.46532C16.6716 9.72625 16.831 10.0888 16.831 10.4841C16.831 10.8591 16.6872 11.195 16.456 11.4528L17.0372 12.4841H19.6013C19.8544 12.4841 20.056 12.6856 20.056 12.9388C20.056 13.1919 19.8544 13.3934 19.6013 13.3934H16.7763C16.6169 13.3934 16.4654 13.3091 16.381 13.1622L15.6701 11.8997C15.581 11.9169 15.4841 11.9247 15.392 11.9247C14.992 11.9247 14.6342 11.7653 14.3732 11.5044C14.1123 11.2435 13.9529 10.8809 13.9529 10.4856L13.9528 10.4841ZM14.3731 27.5405C14.1122 27.2795 13.9528 26.917 13.9528 26.5217C13.9528 26.1264 14.1122 25.7639 14.3731 25.503C14.6341 25.242 14.9966 25.0826 15.3919 25.0826C15.4888 25.0826 15.581 25.0905 15.67 25.1076L16.381 23.8452C16.4653 23.6983 16.6169 23.6139 16.7763 23.6139H19.6013C19.8544 23.6139 20.0559 23.8155 20.0559 24.0686C20.0559 24.3217 19.8544 24.5233 19.6013 24.5233H17.0372L16.4559 25.5545C16.6872 25.8108 16.8309 26.1529 16.8309 26.5233C16.8309 26.9233 16.6716 27.2811 16.4106 27.542C16.1497 27.803 15.7872 27.9623 15.3919 27.9623C14.9965 27.9623 14.6341 27.803 14.3731 27.542L14.3731 27.5405ZM14.8622 26.5217C14.8622 26.3748 14.9216 26.2389 15.0185 26.1467C15.1154 26.0498 15.2466 25.9905 15.3935 25.9905C15.5404 25.9905 15.6763 26.0498 15.7685 26.1467C15.8654 26.2436 15.9247 26.3748 15.9247 26.5217C15.9247 26.6686 15.8653 26.8045 15.7685 26.8967C15.6716 26.9936 15.5404 27.053 15.3935 27.053C15.2466 27.053 15.1107 26.9936 15.0185 26.8967C14.9216 26.7998 14.8622 26.6686 14.8622 26.5217ZM21.931 31.3937C21.931 31.8531 22.117 32.2703 22.4201 32.5687C22.7232 32.8672 23.1357 33.0578 23.5951 33.0578C24.0545 33.0578 24.4717 32.8719 24.7701 32.5687C25.0685 32.2656 25.2592 31.8531 25.2592 31.3937C25.2592 30.9344 25.0733 30.5172 24.7701 30.2187C24.5717 30.0203 24.3232 29.8734 24.0498 29.7937V26.9344H23.1404V29.7937C22.8623 29.8734 22.6185 30.0218 22.4201 30.2187C22.1217 30.5172 21.931 30.9344 21.931 31.3937ZM26.0154 26.9345V29.1361C26.0154 29.3892 26.217 29.5908 26.4701 29.5908C26.7232 29.5908 26.9248 29.3892 26.9248 29.1361V26.9345H26.0154ZM28.7013 26.9345V29.2298C28.7013 29.3892 28.7857 29.5408 28.9326 29.6251L30.1951 30.3361C30.1779 30.4251 30.1701 30.522 30.1701 30.6142C30.1701 31.0142 30.3295 31.372 30.5904 31.633C30.8513 31.8939 31.2138 32.0533 31.6092 32.0533C32.0045 32.0533 32.367 31.8939 32.6279 31.633C32.8889 31.372 33.0482 31.0095 33.0482 30.6142C33.0482 30.2189 32.8889 29.8564 32.6279 29.5954C32.367 29.3345 32.0045 29.1751 31.6092 29.1751C31.2342 29.1751 30.8982 29.3189 30.6404 29.5501L29.6092 28.9689V26.9345H28.6998L28.7013 26.9345ZM34.2669 26.5173C34.2669 26.1423 34.4107 25.8064 34.6419 25.5486L34.0607 24.5173H32.0264V23.608H34.3217C34.481 23.608 34.6326 23.6923 34.717 23.8392L35.4279 25.1017C35.517 25.0845 35.6138 25.0767 35.706 25.0767C36.106 25.0767 36.4638 25.2361 36.7248 25.497C36.9857 25.7579 37.1451 26.1204 37.1451 26.5158C37.1451 26.9111 36.9857 27.2736 36.7248 27.5345C36.4639 27.7955 36.1013 27.9548 35.706 27.9548C35.3107 27.9548 34.9482 27.7955 34.6873 27.5345C34.4263 27.2736 34.2669 26.9111 34.2669 26.5158V26.5173ZM32.0263 21.7345H34.2154C34.4685 21.7345 34.6701 21.533 34.6701 21.2798C34.6701 21.0267 34.4685 20.8252 34.2154 20.8252H32.0263V21.7345ZM32.0263 16.0797H34.2279C34.481 16.0797 34.6826 15.8782 34.6826 15.625C34.6826 15.3719 34.481 15.1704 34.2279 15.1704H32.0263V16.0797ZM35.3107 17.3266C35.1122 17.525 34.9654 17.7735 34.8857 18.0469H32.0263V18.9563H34.8857C34.9654 19.2344 35.1138 19.4782 35.3107 19.6766C35.6091 19.975 36.0263 20.1657 36.4857 20.1657C36.945 20.1657 37.3622 19.9797 37.6607 19.6766C37.9591 19.3782 38.1497 18.961 38.1497 18.5016C38.1497 18.0422 37.9638 17.625 37.6607 17.3266C37.3622 17.0282 36.945 16.8375 36.4857 16.8375C36.0263 16.8375 35.6091 17.0235 35.3107 17.3266ZM24.0483 7.2094C24.3264 7.12971 24.5701 6.98127 24.7686 6.7844C25.067 6.48596 25.2577 6.06876 25.2577 5.6094C25.2577 5.15004 25.0717 4.73284 24.7686 4.4344C24.4655 4.13596 24.0529 3.94532 23.5936 3.94532C23.1342 3.94532 22.717 4.13125 22.4186 4.4344C22.1202 4.73752 21.9295 5.15004 21.9295 5.6094C21.9295 6.06876 22.1154 6.48596 22.4186 6.7844C22.617 6.98283 22.8655 7.12971 23.1389 7.2094V10.0688H24.0483V7.2094ZM25.917 7.87504V10.0641H26.8264V7.87504C26.8264 7.62191 26.6248 7.42036 26.3717 7.42036C26.1186 7.42036 25.917 7.62192 25.917 7.87504ZM28.9311 7.37348C28.7842 7.45785 28.6999 7.60941 28.6999 7.76879V10.0641H29.6092V8.02975L30.6405 7.44851C30.8967 7.67976 31.2389 7.82351 31.6092 7.82351C32.0092 7.82351 32.367 7.66413 32.628 7.40319C32.8889 7.14225 33.0483 6.77975 33.0483 6.38443C33.0483 5.98912 32.8889 5.62663 32.628 5.36567C32.367 5.10473 32.0045 4.94535 31.6092 4.94535C31.2139 4.94535 30.8514 5.10472 30.5905 5.36567C30.3295 5.6266 30.1701 5.98911 30.1701 6.38443C30.1701 6.48131 30.178 6.57349 30.1951 6.66255L28.9327 7.37347L28.9311 7.37348ZM34.6875 9.46256C34.9484 9.20162 35.3109 9.04224 35.7063 9.04224C36.1016 9.04224 36.4641 9.20161 36.725 9.46256C36.986 9.7235 37.1454 10.086 37.1454 10.4813C37.1454 10.8766 36.986 11.2391 36.725 11.5001C36.4641 11.761 36.1016 11.9204 35.7063 11.9204C35.6094 11.9204 35.5172 11.9126 35.4281 11.8954L34.7172 13.1579C34.6328 13.3048 34.4813 13.3891 34.3219 13.3891H32.0266V12.4798H34.061L34.6422 11.4485C34.4109 11.1923 34.2672 10.8501 34.2672 10.4798C34.2672 10.0798 34.4266 9.72196 34.6875 9.46101V9.46256Z" fill="#833AFB"/>
<path d="M21.4168 23.668C20.7822 23.668 20.2362 23.57 19.7788 23.374C19.3308 23.178 18.9902 22.8747 18.7568 22.464C18.5235 22.0533 18.4115 21.54 18.4208 20.924C18.4208 20.8213 18.4722 20.77 18.5748 20.77H19.6388C19.7322 20.77 19.7788 20.826 19.7788 20.938C19.7788 21.414 19.9095 21.7873 20.1708 22.058C20.4322 22.3287 20.8615 22.464 21.4588 22.464C22.0468 22.464 22.4715 22.366 22.7328 22.17C23.0035 21.9647 23.1388 21.624 23.1388 21.148C23.1388 20.9333 23.1062 20.7467 23.0408 20.588C22.9755 20.4293 22.8682 20.2893 22.7188 20.168C22.5695 20.0373 22.3688 19.916 22.1168 19.804L20.2408 18.922C19.6715 18.6513 19.2422 18.3247 18.9528 17.942C18.6728 17.5593 18.5375 17.0787 18.5468 16.5C18.5562 15.688 18.8222 15.1 19.3448 14.736C19.8768 14.3627 20.5768 14.176 21.4448 14.176C22.3968 14.176 23.1342 14.4 23.6568 14.848C24.1888 15.2867 24.4455 15.9587 24.4268 16.864C24.4268 16.9667 24.3802 17.018 24.2868 17.018H23.2088C23.1155 17.018 23.0688 16.9667 23.0688 16.864C23.0688 16.36 22.9288 15.9867 22.6488 15.744C22.3782 15.5013 21.9722 15.38 21.4308 15.38C20.9548 15.38 20.5862 15.4733 20.3248 15.66C20.0728 15.8373 19.9422 16.1127 19.9328 16.486C19.9328 16.822 20.0215 17.0927 20.1988 17.298C20.3762 17.5033 20.6562 17.6947 21.0388 17.872L22.8868 18.754C23.2508 18.9127 23.5542 19.0947 23.7968 19.3C24.0395 19.496 24.2215 19.7387 24.3428 20.028C24.4735 20.3173 24.5388 20.686 24.5388 21.134C24.5388 21.9647 24.2588 22.5947 23.6988 23.024C23.1388 23.4533 22.3782 23.668 21.4168 23.668ZM21.0388 24.746C20.9455 24.746 20.8988 24.6993 20.8988 24.606V23.444L22.1308 23.374V24.606C22.1308 24.6993 22.0842 24.746 21.9908 24.746H21.0388ZM20.8988 14.414V13.252C20.8988 13.1587 20.9455 13.112 21.0388 13.112H21.9908C22.0842 13.112 22.1308 13.1587 22.1308 13.252V14.484L20.8988 14.414Z" fill="white"/>
</g>
<defs>
<clipPath id="clip0_66_116">
<rect width="38.4" height="36" fill="white" transform="translate(0 0.5)"/>
</clipPath>
</defs>
</svg>
