<svg width="43" height="43" viewBox="0 0 43 43" fill="none" xmlns="http://www.w3.org/2000/svg">
<g clip-path="url(#clip0_20_653)">
<path d="M7.13617 32.3061V18.1564C7.13617 16.2028 8.71993 14.619 10.6736 14.619H19.8709H26.2383H35.4356C37.3893 14.619 38.973 16.2028 38.973 18.1564V32.3061C38.973 34.2599 37.3893 35.8436 35.4356 35.8436H26.2383H19.8709H10.6736C8.71993 35.8436 7.13617 34.2599 7.13617 32.3061Z" stroke="#833AFB" stroke-width="3.53742" stroke-linecap="round" stroke-linejoin="round"/>
<path d="M32.7825 25.2499L32.801 25.2293" stroke="#833AFB" stroke-width="3.53742" stroke-linecap="round" stroke-linejoin="round"/>
<path d="M13.3267 25.2499L13.3452 25.2293" stroke="#833AFB" stroke-width="3.53742" stroke-linecap="round" stroke-linejoin="round"/>
<path d="M7.13614 28.7687H5.36743C3.41376 28.7687 1.83 27.185 1.83 25.2313V11.0816C1.83 9.12789 3.41376 7.54413 5.36743 7.54413H30.1294C32.0831 7.54413 33.6668 9.12789 33.6668 11.0816V14.619" stroke="#833AFB" stroke-width="3.53742" stroke-linecap="round" stroke-linejoin="round"/>
<path d="M23.0546 28.7687C21.1009 28.7687 19.5172 27.185 19.5172 25.2313C19.5172 23.2776 21.1009 21.6938 23.0546 21.6938C25.0083 21.6938 26.592 23.2776 26.592 25.2313C26.592 27.185 25.0083 28.7687 23.0546 28.7687Z" stroke="#833AFB" stroke-width="3.53742" stroke-linecap="round" stroke-linejoin="round"/>
</g>
<defs>
<clipPath id="clip0_20_653">
<rect width="42.4491" height="42.4491" fill="white" transform="translate(0.0613403 0.469299)"/>
</clipPath>
</defs>
</svg>
