<svg width="64" height="64" viewBox="0 0 64 64" fill="none" xmlns="http://www.w3.org/2000/svg">
<path d="M8 50.6667V13.3333C8 10.3878 10.3878 8 13.3333 8H50.6667C53.6123 8 56 10.3878 56 13.3333V50.6667C56 53.6123 53.6123 56 50.6667 56H13.3333C10.3878 56 8 53.6123 8 50.6667Z" stroke="black" stroke-width="4"/>
<path d="M26.6667 40C22.2484 40 18.6667 36.4184 18.6667 32C18.6667 27.5816 22.2484 24 26.6667 24C31.0851 24 34.6667 27.5816 34.6667 32C34.6667 36.4184 31.0851 40 26.6667 40Z" stroke="black" stroke-width="4" stroke-linecap="round" stroke-linejoin="round"/>
<path d="M48 37.3334V26.6667" stroke="black" stroke-width="4" stroke-linecap="round" stroke-linejoin="round"/>
<path d="M33.3333 25.3334L36 22.6667" stroke="black" stroke-width="4" stroke-linecap="round" stroke-linejoin="round"/>
<path d="M20 25.3334L17.3333 22.6667" stroke="black" stroke-width="4" stroke-linecap="round" stroke-linejoin="round"/>
<path d="M17.3333 41.3334L20 38.6667" stroke="black" stroke-width="4" stroke-linecap="round" stroke-linejoin="round"/>
<path d="M36 41.3334L33.3333 38.6667" stroke="black" stroke-width="4" stroke-linecap="round" stroke-linejoin="round"/>
<path d="M5.33331 21.3333H7.99998" stroke="black" stroke-width="4" stroke-linecap="round" stroke-linejoin="round"/>
<path d="M5.33331 16H7.99998" stroke="black" stroke-width="4" stroke-linecap="round" stroke-linejoin="round"/>
<path d="M7.99998 42.6667H5.33331" stroke="black" stroke-width="4" stroke-linecap="round" stroke-linejoin="round"/>
<path d="M7.99998 48H5.33331" stroke="black" stroke-width="4" stroke-linecap="round" stroke-linejoin="round"/>
</svg>
