<svg width="667" height="294" viewBox="0 0 667 294" fill="none" xmlns="http://www.w3.org/2000/svg">
<g filter="url(#filter0_d_16_109)">
<rect x="502.017" y="187.392" width="56.5568" height="56.5568" rx="12.5682" fill="white"/>
<path fill-rule="evenodd" clip-rule="evenodd" d="M545.292 204.847C545.734 205.289 545.982 205.889 545.982 206.514C545.982 207.138 545.734 207.738 545.292 208.18L527.629 225.843C527.396 226.076 527.119 226.261 526.814 226.388C526.509 226.514 526.182 226.579 525.852 226.579C525.521 226.579 525.195 226.514 524.889 226.388C524.584 226.261 524.307 226.076 524.074 225.843L515.298 217.068C515.073 216.851 514.894 216.591 514.77 216.304C514.647 216.016 514.582 215.707 514.579 215.394C514.576 215.081 514.636 214.771 514.754 214.481C514.873 214.191 515.048 213.928 515.269 213.707C515.49 213.486 515.753 213.311 516.043 213.192C516.333 213.074 516.643 213.014 516.956 213.017C517.269 213.02 517.578 213.085 517.865 213.208C518.153 213.332 518.413 213.511 518.63 213.736L525.851 220.957L541.958 204.847C542.177 204.629 542.437 204.455 542.723 204.336C543.009 204.218 543.316 204.157 543.625 204.157C543.935 204.157 544.241 204.218 544.527 204.336C544.813 204.455 545.073 204.629 545.292 204.847Z" fill="#833AFB"/>
</g>
<g filter="url(#filter1_d_16_109)">
<rect x="71.5568" y="45.9998" width="56.9127" height="57.037" rx="12.5682" fill="white"/>
<rect x="88.3326" y="65.9797" width="4.71307" height="29.8494" rx="2.35653" transform="rotate(-45 88.3326 65.9797)" fill="#833AFB"/>
<rect x="108.756" y="62.8376" width="4.71307" height="29.8494" rx="2.35653" transform="rotate(45 108.756 62.8376)" fill="#833AFB"/>
</g>
<g filter="url(#filter2_d_16_109)">
<rect x="334" y="11" width="56.9127" height="57.037" rx="12.5682" fill="white"/>
<path d="M372.956 33.5186V24.5186M372.956 24.5186L377.456 29.0186M372.956 24.5186L368.456 29.0186" stroke="#833AFB" stroke-width="3" stroke-linecap="round" stroke-linejoin="round"/>
<path d="M363.956 24.5926C363.463 24.5436 362.963 24.5186 362.456 24.5186C354.172 24.5186 347.456 31.2343 347.456 39.5186C347.456 42.2507 348.187 44.8122 349.463 47.0186L348.206 53.7686L354.956 52.5119C357.163 53.7881 359.724 54.5186 362.456 54.5186C370.741 54.5186 377.456 47.8028 377.456 39.5186C377.456 39.0123 377.431 38.5119 377.382 38.0186" stroke="#833AFB" stroke-width="3" stroke-linecap="round" stroke-linejoin="round"/>
</g>
<g filter="url(#filter3_d_16_109)">
<rect x="217" y="217" width="56.9127" height="57.037" rx="12.5682" fill="white"/>
<path d="M239.456 238.019H233.456C231.8 238.019 230.456 239.362 230.456 241.019V256.019C230.456 257.675 231.8 259.019 233.456 259.019H257.456C259.113 259.019 260.456 257.675 260.456 256.019V241.019C260.456 239.362 259.113 238.019 257.456 238.019H251.456M239.456 238.019V232.919C239.456 232.421 239.859 232.019 240.356 232.019H250.556C251.053 232.019 251.456 232.421 251.456 232.919V238.019M239.456 238.019H251.456" stroke="#833AFB" stroke-width="3"/>
</g>
<g filter="url(#filter4_d_16_109)">
<rect x="594.707" y="45.9998" width="56.9127" height="57.037" rx="12.5682" fill="white"/>
<path d="M620.5 77.9118C620.224 77.9118 620.086 77.7736 620.086 77.4971V76.0266C620.086 75.1971 620.299 74.4682 620.727 73.8397C621.179 73.1862 621.72 72.5955 622.348 72.0676C622.976 71.5398 623.605 71.0119 624.233 70.484C624.887 69.9562 625.427 69.4032 625.854 68.825C626.282 68.2218 626.495 67.5557 626.495 66.8267C626.495 66.0726 626.219 65.507 625.666 65.13C625.138 64.753 624.334 64.5644 623.253 64.5644C621.946 64.5644 621.041 64.8661 620.538 65.4693C620.035 66.0475 619.797 66.8895 619.822 67.9955C619.822 68.3223 619.683 68.4857 619.407 68.4857H616.014C615.838 68.4857 615.712 68.4354 615.637 68.3349C615.586 68.2092 615.561 68.071 615.561 67.9201C615.486 65.5573 616.089 63.7978 617.371 62.6415C618.678 61.4601 620.676 60.8694 623.366 60.8694C625.955 60.8694 627.865 61.3344 629.097 62.2645C630.354 63.1945 630.982 64.5393 630.982 66.2988C630.982 67.4551 630.756 68.4606 630.304 69.3152C629.876 70.1698 629.348 70.9239 628.72 71.5775C628.092 72.2059 627.451 72.784 626.797 73.3119C626.169 73.8397 625.628 74.3425 625.176 74.8201C624.748 75.2977 624.522 75.8004 624.497 76.3282V77.4971C624.497 77.7736 624.346 77.9118 624.045 77.9118H620.5ZM622.461 86.4708C621.531 86.4708 620.827 86.2571 620.35 85.8298C619.897 85.3773 619.671 84.7489 619.671 83.9446V83.3413C619.671 82.5118 619.897 81.8834 620.35 81.4561C620.827 81.0036 621.531 80.7774 622.461 80.7774C623.391 80.7774 624.082 81.0036 624.535 81.4561C624.987 81.8834 625.213 82.5118 625.213 83.3413V83.9446C625.213 84.7489 624.987 85.3773 624.535 85.8298C624.082 86.2571 623.391 86.4708 622.461 86.4708Z" fill="#833AFB"/>
</g>
<g filter="url(#filter5_d_16_109)">
<rect x="15" y="188.963" width="56.9127" height="57.037" rx="12.5682" fill="white"/>
<path d="M46.8194 220.045C46.0402 220.045 45.3741 219.995 44.8211 219.894C44.2932 219.769 43.803 219.63 43.3506 219.48C42.9233 219.329 42.4457 219.203 41.9178 219.103C41.4151 219.002 40.7867 218.952 40.0326 218.952C39.2785 218.952 38.4993 219.052 37.6949 219.253C36.8905 219.455 36.2747 219.618 35.8474 219.744C35.5709 219.819 35.4326 219.718 35.4326 219.442V216.652C35.4326 216.451 35.4955 216.325 35.6212 216.275C35.9479 216.124 36.4884 215.923 37.2424 215.672C38.0217 215.395 38.9769 215.257 40.108 215.257C40.8872 215.257 41.5408 215.32 42.0686 215.445C42.6216 215.546 43.1244 215.672 43.5768 215.822C44.0293 215.973 44.5069 216.111 45.0096 216.237C45.5374 216.338 46.1659 216.388 46.8948 216.388C47.6489 216.388 48.4281 216.275 49.2325 216.049C50.062 215.822 50.6778 215.659 51.08 215.558C51.3565 215.483 51.4948 215.584 51.4948 215.86V218.65C51.4948 218.876 51.4068 219.027 51.2308 219.103C50.9041 219.228 50.3511 219.417 49.5718 219.668C48.8177 219.92 47.9003 220.045 46.8194 220.045Z" fill="#833AFB"/>
</g>
<path d="M525.32 187.392C525.32 189.705 527.196 191.581 529.51 191.581C531.823 191.581 533.699 189.705 533.699 187.392C533.699 185.078 531.823 183.202 529.51 183.202C527.196 183.202 525.32 185.078 525.32 187.392ZM466.669 135.548C481.987 135.548 493.523 135.892 502.225 137.136C510.933 138.38 516.686 140.509 520.539 143.986C524.375 147.448 526.439 152.348 527.531 159.405C528.624 166.477 528.724 175.593 528.724 187.392H530.295C530.295 175.625 530.199 166.38 529.083 159.165C527.965 151.935 525.807 146.624 521.592 142.82C517.393 139.031 511.266 136.84 502.447 135.58C493.622 134.32 481.985 133.977 466.669 133.977L466.669 135.548Z" fill="#833AFB"/>
<path d="M274 242.811C271.686 242.811 269.811 244.686 269.811 247C269.811 249.314 271.686 251.189 274 251.189C276.314 251.189 278.189 249.314 278.189 247C278.189 244.686 276.314 242.811 274 242.811ZM338.844 159C338.844 174.326 338.772 187.444 337.663 198.52C336.554 209.598 334.413 218.553 330.323 225.581C322.203 239.537 306.191 246.214 274 246.214L274 247.786C306.309 247.786 323.112 241.098 331.681 226.371C335.936 219.058 338.109 209.843 339.227 198.676C340.345 187.508 340.415 174.309 340.415 159L338.844 159Z" fill="#833AFB"/>
<path d="M334 45.1894C336.314 45.1894 338.189 43.3137 338.189 41C338.189 38.6863 336.314 36.8106 334 36.8106C331.686 36.8106 329.811 38.6863 329.811 41C329.811 43.3137 331.686 45.1894 334 45.1894ZM268.786 110C268.786 94.6695 268.88 82.7499 270.022 73.4664C271.163 64.1828 273.339 57.6617 277.402 53.0426C281.456 48.4343 287.492 45.6044 296.618 43.9379C305.752 42.2699 317.875 41.7855 334 41.7855L334 40.2145C317.875 40.2145 305.623 40.6963 296.335 42.3924C287.039 44.0901 280.606 47.022 276.223 52.005C271.849 56.9772 269.618 63.8767 268.463 73.2747C267.307 82.6727 267.214 94.6956 267.214 110L268.786 110Z" fill="#833AFB"/>
<path d="M103.239 102.556C103.239 100.242 101.363 98.3665 99.0497 98.3665C96.7359 98.3665 94.8603 100.242 94.8603 102.556C94.8603 104.87 96.7359 106.745 99.0497 106.745C101.363 106.745 103.239 104.87 103.239 102.556ZM184.67 132.405C169.37 132.405 156.289 132.848 145.439 132.921C134.538 132.995 125.828 132.698 119.048 131.245C112.288 129.796 107.542 127.219 104.456 122.8C101.351 118.354 99.8352 111.918 99.8352 102.556H98.2642C98.2642 112.046 99.7922 118.866 103.168 123.699C106.562 128.559 111.733 131.284 118.719 132.781C125.686 134.274 134.552 134.566 145.449 134.492C156.397 134.418 169.336 133.976 184.67 133.976L184.67 132.405Z" fill="#833AFB"/>
<path d="M587.637 134.763L587.709 133.98L587.673 133.977H587.637V134.763ZM618.011 102.557C618.011 104.87 619.886 106.746 622.2 106.746C624.514 106.746 626.389 104.87 626.389 102.557C626.389 100.243 624.514 98.3672 622.2 98.3672C619.886 98.3672 618.011 100.243 618.011 102.557ZM466.669 135.548H587.637V133.977H466.669V135.548ZM587.566 135.545C593.452 136.08 602.28 135.083 609.665 130.317C617.102 125.516 622.985 116.948 622.985 102.557H621.414C621.414 116.444 615.777 124.502 608.813 128.997C601.797 133.525 593.344 134.493 587.709 133.98L587.566 135.545Z" fill="#833AFB"/>
<path d="M45.1113 188.963C45.1113 186.649 43.2356 184.773 40.9219 184.773C38.6081 184.773 36.7325 186.649 36.7325 188.963C36.7325 191.276 38.6081 193.152 40.9219 193.152C43.2356 193.152 45.1113 191.276 45.1113 188.963ZM184.67 132.406H76.2698V133.977H184.67V132.406ZM76.2698 132.406C68.2682 132.406 59.1763 134.612 52.1071 142.893C45.0609 151.147 40.1363 165.309 40.1363 188.963H41.7074C41.7074 165.486 46.6016 151.762 53.302 143.913C59.9792 136.091 68.5613 133.977 76.2698 133.977V132.406Z" fill="#833AFB"/>
<g filter="url(#filter6_d_16_109)">
<rect x="184.67" y="109" width="282.784" height="50.2727" rx="18.8523" fill="white"/>
</g>
<path d="M208.519 141.412C208.039 141.412 207.634 141.289 207.303 141.044C206.973 140.799 206.727 140.415 206.567 139.892C206.418 139.38 206.359 138.724 206.391 137.924C206.391 137.871 206.407 137.833 206.439 137.812C206.471 137.78 206.509 137.764 206.551 137.764L207.687 137.812C207.741 137.812 207.783 137.828 207.815 137.86C207.847 137.892 207.863 137.935 207.863 137.988C207.853 138.479 207.874 138.873 207.927 139.172C207.991 139.481 208.098 139.7 208.247 139.828C208.397 139.967 208.589 140.036 208.823 140.036C208.909 140.036 208.994 140.025 209.079 140.004C209.165 139.983 209.25 139.967 209.335 139.956C209.399 139.935 209.447 139.94 209.479 139.972C209.511 140.004 209.527 140.047 209.527 140.1V141.076C209.527 141.172 209.469 141.241 209.351 141.284C209.255 141.316 209.127 141.343 208.967 141.364C208.818 141.396 208.669 141.412 208.519 141.412ZM206.535 138.692C205.17 138.692 204.146 138.361 203.463 137.7C202.791 137.028 202.455 136.079 202.455 134.852V131.668C202.455 130.431 202.791 129.481 203.463 128.82C204.146 128.159 205.17 127.828 206.535 127.828C207.901 127.828 208.919 128.159 209.591 128.82C210.274 129.481 210.615 130.431 210.615 131.668V134.852C210.615 136.079 210.274 137.028 209.591 137.7C208.919 138.361 207.901 138.692 206.535 138.692ZM206.535 137.268C207.346 137.268 207.959 137.06 208.375 136.644C208.791 136.217 208.999 135.604 208.999 134.804V131.716C208.999 130.905 208.791 130.292 208.375 129.876C207.959 129.46 207.346 129.252 206.535 129.252C205.735 129.252 205.122 129.46 204.695 129.876C204.279 130.292 204.071 130.905 204.071 131.716V134.804C204.071 135.604 204.279 136.217 204.695 136.644C205.122 137.06 205.735 137.268 206.535 137.268ZM214.959 138.692C214.266 138.692 213.738 138.468 213.375 138.02C213.012 137.561 212.831 136.9 212.831 136.036V130.836C212.831 130.719 212.89 130.66 213.007 130.66H214.255C214.372 130.66 214.431 130.719 214.431 130.836V135.86C214.431 136.351 214.516 136.713 214.687 136.948C214.858 137.183 215.124 137.3 215.487 137.3C215.871 137.3 216.25 137.183 216.623 136.948C217.007 136.703 217.466 136.308 217.999 135.764V137.108C217.679 137.439 217.354 137.721 217.023 137.956C216.692 138.191 216.356 138.372 216.015 138.5C215.674 138.628 215.322 138.692 214.959 138.692ZM218.143 138.5C218.079 138.5 218.031 138.489 217.999 138.468C217.967 138.436 217.946 138.393 217.935 138.34C217.903 138.137 217.876 137.929 217.855 137.716C217.834 137.503 217.818 137.284 217.807 137.06L217.695 136.324V130.836C217.695 130.719 217.754 130.66 217.871 130.66H219.119C219.236 130.66 219.295 130.719 219.295 130.836V136.532C219.295 136.831 219.3 137.135 219.311 137.444C219.332 137.743 219.364 138.036 219.407 138.324C219.428 138.441 219.364 138.5 219.215 138.5H218.143ZM226.11 138.5C226.046 138.5 225.998 138.479 225.966 138.436C225.945 138.393 225.923 138.34 225.902 138.276C225.891 138.18 225.865 137.999 225.822 137.732C225.79 137.465 225.769 137.215 225.758 136.98L225.678 136.356V133.172C225.678 132.671 225.577 132.319 225.374 132.116C225.182 131.903 224.841 131.796 224.35 131.796C223.454 131.796 223.011 132.111 223.022 132.74C223.022 132.857 222.969 132.916 222.862 132.916H221.63C221.513 132.916 221.449 132.82 221.438 132.628C221.385 131.967 221.625 131.444 222.158 131.06C222.691 130.665 223.438 130.468 224.398 130.468C225.379 130.468 226.105 130.692 226.574 131.14C227.043 131.577 227.278 132.249 227.278 133.156V136.532C227.278 136.895 227.289 137.225 227.31 137.524C227.331 137.823 227.358 138.084 227.39 138.308C227.411 138.436 227.353 138.5 227.214 138.5H226.11ZM223.054 138.692C222.425 138.692 221.945 138.505 221.614 138.132C221.283 137.748 221.118 137.199 221.118 136.484C221.118 135.929 221.225 135.476 221.438 135.124C221.651 134.772 221.998 134.5 222.478 134.308C222.969 134.116 223.619 133.988 224.43 133.924L225.934 133.796L225.918 134.884L224.478 135.012C223.806 135.065 223.337 135.188 223.07 135.38C222.814 135.572 222.686 135.892 222.686 136.34C222.686 136.681 222.755 136.937 222.894 137.108C223.033 137.279 223.246 137.364 223.534 137.364C223.865 137.364 224.211 137.252 224.574 137.028C224.937 136.804 225.406 136.393 225.982 135.796L226.014 137.028C225.651 137.412 225.31 137.727 224.99 137.972C224.681 138.217 224.366 138.399 224.046 138.516C223.737 138.633 223.406 138.692 223.054 138.692ZM234.766 138.5C234.649 138.5 234.59 138.441 234.59 138.324V133.3C234.59 132.809 234.489 132.452 234.286 132.228C234.094 131.993 233.79 131.876 233.374 131.876C232.98 131.876 232.59 131.993 232.206 132.228C231.822 132.452 231.364 132.831 230.83 133.364L230.798 132.068C231.14 131.705 231.47 131.407 231.79 131.172C232.11 130.937 232.436 130.761 232.766 130.644C233.108 130.527 233.465 130.468 233.838 130.468C234.606 130.468 235.188 130.692 235.582 131.14C235.988 131.577 236.19 132.239 236.19 133.124V138.324C236.19 138.441 236.137 138.5 236.03 138.5H234.766ZM229.694 138.5C229.577 138.5 229.518 138.441 229.518 138.324V132.644C229.518 132.345 229.502 132.031 229.47 131.7C229.449 131.359 229.428 131.087 229.406 130.884C229.385 130.735 229.444 130.66 229.582 130.66H230.718C230.782 130.66 230.825 130.671 230.846 130.692C230.878 130.713 230.9 130.756 230.91 130.82C230.932 130.916 230.953 131.049 230.974 131.22C230.996 131.391 231.017 131.572 231.038 131.764C231.06 131.956 231.07 132.121 231.07 132.26L231.118 132.772V138.324C231.118 138.441 231.06 138.5 230.942 138.5H229.694ZM241.462 138.692C240.875 138.692 240.411 138.601 240.07 138.42C239.728 138.228 239.478 137.94 239.318 137.556C239.168 137.161 239.094 136.671 239.094 136.084V132.02H237.878C237.771 132.02 237.718 131.961 237.718 131.844V130.836C237.718 130.719 237.771 130.66 237.878 130.66H239.142L239.334 128.74C239.344 128.633 239.408 128.58 239.526 128.58H240.502C240.619 128.58 240.678 128.633 240.678 128.74L240.694 130.66H242.982C243.099 130.66 243.158 130.719 243.158 130.836V131.844C243.158 131.961 243.099 132.02 242.982 132.02H240.694V136.02C240.694 136.489 240.774 136.825 240.934 137.028C241.104 137.22 241.392 137.316 241.798 137.316C242 137.316 242.203 137.295 242.406 137.252C242.619 137.199 242.806 137.135 242.966 137.06C243.03 137.039 243.078 137.044 243.11 137.076C243.152 137.097 243.174 137.135 243.174 137.188V138.228C243.174 138.324 243.131 138.388 243.046 138.42C242.843 138.495 242.608 138.559 242.342 138.612C242.086 138.665 241.792 138.692 241.462 138.692ZM246.896 138.692C246.203 138.692 245.675 138.468 245.312 138.02C244.95 137.561 244.768 136.9 244.768 136.036V130.836C244.768 130.719 244.827 130.66 244.944 130.66H246.192C246.31 130.66 246.368 130.719 246.368 130.836V135.86C246.368 136.351 246.454 136.713 246.624 136.948C246.795 137.183 247.062 137.3 247.424 137.3C247.808 137.3 248.187 137.183 248.56 136.948C248.944 136.703 249.403 136.308 249.936 135.764V137.108C249.616 137.439 249.291 137.721 248.96 137.956C248.63 138.191 248.294 138.372 247.952 138.5C247.611 138.628 247.259 138.692 246.896 138.692ZM250.08 138.5C250.016 138.5 249.968 138.489 249.936 138.468C249.904 138.436 249.883 138.393 249.872 138.34C249.84 138.137 249.814 137.929 249.792 137.716C249.771 137.503 249.755 137.284 249.744 137.06L249.632 136.324V130.836C249.632 130.719 249.691 130.66 249.808 130.66H251.056C251.174 130.66 251.232 130.719 251.232 130.836V136.532C251.232 136.831 251.238 137.135 251.248 137.444C251.27 137.743 251.302 138.036 251.344 138.324C251.366 138.441 251.302 138.5 251.152 138.5H250.08ZM253.648 138.5C253.53 138.5 253.472 138.441 253.472 138.324V132.644C253.472 132.345 253.461 132.041 253.44 131.732C253.429 131.412 253.402 131.124 253.36 130.868C253.338 130.729 253.402 130.66 253.552 130.66H254.672C254.736 130.66 254.778 130.671 254.8 130.692C254.821 130.703 254.837 130.735 254.848 130.788C254.869 130.937 254.896 131.103 254.928 131.284C254.96 131.465 254.981 131.652 254.992 131.844C255.45 131.385 255.888 131.044 256.304 130.82C256.73 130.585 257.2 130.468 257.712 130.468C258.256 130.468 258.693 130.591 259.024 130.836C259.354 131.081 259.589 131.444 259.728 131.924C260.197 131.433 260.65 131.071 261.088 130.836C261.525 130.591 262.005 130.468 262.528 130.468C263.253 130.468 263.797 130.692 264.16 131.14C264.533 131.577 264.72 132.233 264.72 133.108V138.324C264.72 138.441 264.661 138.5 264.544 138.5H263.296C263.178 138.5 263.12 138.441 263.12 138.324V133.3C263.12 132.82 263.029 132.463 262.848 132.228C262.677 131.993 262.405 131.876 262.032 131.876C261.712 131.876 261.381 131.977 261.04 132.18C260.709 132.372 260.325 132.676 259.888 133.092V138.324C259.888 138.441 259.834 138.5 259.728 138.5H258.464C258.346 138.5 258.288 138.441 258.288 138.324V133.3C258.288 132.82 258.202 132.463 258.032 132.228C257.861 131.993 257.589 131.876 257.216 131.876C256.885 131.876 256.549 131.977 256.208 132.18C255.877 132.372 255.498 132.676 255.072 133.092V138.324C255.072 138.441 255.013 138.5 254.896 138.5H253.648ZM270.604 138.5C270.487 138.5 270.428 138.441 270.428 138.324V128.196C270.428 128.079 270.487 128.02 270.604 128.02H273.596C274.834 128.02 275.762 128.239 276.38 128.676C276.999 129.103 277.308 129.753 277.308 130.628C277.308 131.215 277.17 131.689 276.892 132.052C276.615 132.415 276.167 132.708 275.548 132.932V132.964C276.274 133.103 276.823 133.391 277.196 133.828C277.57 134.265 277.756 134.847 277.756 135.572C277.756 136.575 277.42 137.316 276.748 137.796C276.087 138.265 275.036 138.5 273.596 138.5H270.604ZM272.044 137.124H273.612C274.519 137.124 275.164 136.996 275.548 136.74C275.943 136.484 276.14 136.057 276.14 135.46C276.14 134.863 275.943 134.425 275.548 134.148C275.154 133.871 274.524 133.732 273.66 133.732H272.044V137.124ZM272.044 132.468H273.532C274.279 132.468 274.823 132.34 275.164 132.084C275.516 131.828 275.692 131.428 275.692 130.884C275.692 130.34 275.516 129.956 275.164 129.732C274.812 129.497 274.226 129.38 273.404 129.38H272.044V132.468ZM279.741 138.5C279.624 138.5 279.565 138.441 279.565 138.324V132.596C279.565 132.287 279.555 131.993 279.533 131.716C279.523 131.428 279.496 131.14 279.453 130.852C279.432 130.724 279.491 130.66 279.629 130.66H280.765C280.829 130.66 280.872 130.671 280.893 130.692C280.925 130.713 280.947 130.756 280.957 130.82C281 131.012 281.032 131.236 281.053 131.492C281.075 131.748 281.085 131.967 281.085 132.148L281.165 133.028V138.324C281.165 138.441 281.107 138.5 280.989 138.5H279.741ZM280.989 133.62L280.925 132.164C281.149 131.833 281.405 131.545 281.693 131.3C281.981 131.044 282.275 130.841 282.573 130.692C282.872 130.543 283.149 130.468 283.405 130.468C283.587 130.468 283.731 130.484 283.837 130.516C283.891 130.527 283.923 130.548 283.933 130.58C283.955 130.612 283.971 130.655 283.981 130.708C284.003 130.943 284.008 131.193 283.997 131.46C283.997 131.716 283.981 131.961 283.949 132.196C283.939 132.249 283.912 132.292 283.869 132.324C283.837 132.345 283.789 132.351 283.725 132.34C283.651 132.319 283.565 132.303 283.469 132.292C283.373 132.281 283.272 132.276 283.165 132.276C282.909 132.276 282.653 132.335 282.397 132.452C282.141 132.559 281.891 132.713 281.645 132.916C281.411 133.108 281.192 133.343 280.989 133.62ZM288.406 138.692C287.307 138.692 286.465 138.425 285.878 137.892C285.291 137.359 284.998 136.553 284.998 135.476V133.684C284.998 132.607 285.286 131.801 285.862 131.268C286.449 130.735 287.297 130.468 288.406 130.468C289.505 130.468 290.342 130.735 290.918 131.268C291.505 131.801 291.798 132.607 291.798 133.684V135.476C291.798 136.553 291.51 137.359 290.934 137.892C290.358 138.425 289.515 138.692 288.406 138.692ZM288.406 137.3C289.035 137.3 289.489 137.14 289.766 136.82C290.054 136.5 290.198 136.004 290.198 135.332V133.828C290.198 133.167 290.054 132.676 289.766 132.356C289.489 132.025 289.035 131.86 288.406 131.86C287.766 131.86 287.302 132.025 287.014 132.356C286.737 132.676 286.598 133.167 286.598 133.828V135.332C286.598 136.004 286.737 136.5 287.014 136.82C287.302 137.14 287.766 137.3 288.406 137.3ZM294.007 138.5C293.89 138.5 293.831 138.441 293.831 138.324V127.748C293.831 127.631 293.89 127.572 294.007 127.572H295.255C295.372 127.572 295.431 127.631 295.431 127.748V131.78C295.431 132.025 295.431 132.271 295.431 132.516C295.431 132.761 295.426 133.007 295.415 133.252C295.415 133.497 295.41 133.743 295.399 133.988H295.431C295.612 133.764 295.799 133.54 295.991 133.316C296.183 133.092 296.38 132.873 296.583 132.66L298.311 130.756C298.354 130.692 298.418 130.66 298.503 130.66H300.151C300.226 130.66 300.274 130.681 300.295 130.724C300.316 130.767 300.3 130.815 300.247 130.868L297.591 133.684L300.471 138.292C300.514 138.345 300.519 138.393 300.487 138.436C300.466 138.479 300.423 138.5 300.359 138.5H298.871C298.786 138.5 298.716 138.463 298.663 138.388L296.455 134.836L295.431 135.892V138.324C295.431 138.441 295.372 138.5 295.255 138.5H294.007ZM304.701 138.692C303.613 138.692 302.786 138.447 302.221 137.956C301.666 137.465 301.389 136.735 301.389 135.764V133.636C301.389 132.601 301.666 131.817 302.221 131.284C302.775 130.74 303.597 130.468 304.685 130.468C305.762 130.468 306.578 130.729 307.133 131.252C307.687 131.775 307.965 132.537 307.965 133.54V134.788C307.965 134.905 307.911 134.964 307.805 134.964H302.989V135.476C302.989 136.127 303.127 136.601 303.405 136.9C303.682 137.199 304.13 137.348 304.749 137.348C305.218 137.348 305.581 137.273 305.837 137.124C306.093 136.975 306.221 136.745 306.221 136.436C306.221 136.319 306.285 136.26 306.413 136.26H307.645C307.741 136.26 307.799 136.313 307.821 136.42C307.863 137.135 307.607 137.695 307.053 138.1C306.498 138.495 305.714 138.692 304.701 138.692ZM302.989 133.748H306.381V133.668C306.381 133.028 306.242 132.559 305.965 132.26C305.687 131.961 305.266 131.812 304.701 131.812C304.125 131.812 303.693 131.967 303.405 132.276C303.127 132.585 302.989 133.049 302.989 133.668V133.748ZM310.163 138.5C310.046 138.5 309.987 138.441 309.987 138.324V132.596C309.987 132.287 309.977 131.993 309.955 131.716C309.945 131.428 309.918 131.14 309.875 130.852C309.854 130.724 309.913 130.66 310.051 130.66H311.187C311.251 130.66 311.294 130.671 311.315 130.692C311.347 130.713 311.369 130.756 311.379 130.82C311.422 131.012 311.454 131.236 311.475 131.492C311.497 131.748 311.507 131.967 311.507 132.148L311.587 133.028V138.324C311.587 138.441 311.529 138.5 311.411 138.5H310.163ZM311.411 133.62L311.347 132.164C311.571 131.833 311.827 131.545 312.115 131.3C312.403 131.044 312.697 130.841 312.995 130.692C313.294 130.543 313.571 130.468 313.827 130.468C314.009 130.468 314.153 130.484 314.259 130.516C314.313 130.527 314.345 130.548 314.355 130.58C314.377 130.612 314.393 130.655 314.403 130.708C314.425 130.943 314.43 131.193 314.419 131.46C314.419 131.716 314.403 131.961 314.371 132.196C314.361 132.249 314.334 132.292 314.291 132.324C314.259 132.345 314.211 132.351 314.147 132.34C314.073 132.319 313.987 132.303 313.891 132.292C313.795 132.281 313.694 132.276 313.587 132.276C313.331 132.276 313.075 132.335 312.819 132.452C312.563 132.559 312.313 132.713 312.067 132.916C311.833 133.108 311.614 133.343 311.411 133.62Z" fill="#833AFB"/>
<path d="M449 134L430 142L433.562 134L430 126L449 134Z" stroke="#833AFB" stroke-width="2" stroke-linecap="round" stroke-linejoin="round"/>
<path d="M433.5 134H449" stroke="#833AFB" stroke-width="2" stroke-linecap="round" stroke-linejoin="round"/>
<defs>
<filter id="filter0_d_16_109" x="487.017" y="176.392" width="86.5568" height="86.5569" filterUnits="userSpaceOnUse" color-interpolation-filters="sRGB">
<feFlood flood-opacity="0" result="BackgroundImageFix"/>
<feColorMatrix in="SourceAlpha" type="matrix" values="0 0 0 0 0 0 0 0 0 0 0 0 0 0 0 0 0 0 127 0" result="hardAlpha"/>
<feOffset dy="4"/>
<feGaussianBlur stdDeviation="7.5"/>
<feComposite in2="hardAlpha" operator="out"/>
<feColorMatrix type="matrix" values="0 0 0 0 0.333333 0 0 0 0 0.431373 0 0 0 0 0.690196 0 0 0 0.15 0"/>
<feBlend mode="normal" in2="BackgroundImageFix" result="effect1_dropShadow_16_109"/>
<feBlend mode="normal" in="SourceGraphic" in2="effect1_dropShadow_16_109" result="shape"/>
</filter>
<filter id="filter1_d_16_109" x="56.5568" y="34.9998" width="86.9127" height="87.0371" filterUnits="userSpaceOnUse" color-interpolation-filters="sRGB">
<feFlood flood-opacity="0" result="BackgroundImageFix"/>
<feColorMatrix in="SourceAlpha" type="matrix" values="0 0 0 0 0 0 0 0 0 0 0 0 0 0 0 0 0 0 127 0" result="hardAlpha"/>
<feOffset dy="4"/>
<feGaussianBlur stdDeviation="7.5"/>
<feComposite in2="hardAlpha" operator="out"/>
<feColorMatrix type="matrix" values="0 0 0 0 0.333333 0 0 0 0 0.431373 0 0 0 0 0.690196 0 0 0 0.15 0"/>
<feBlend mode="normal" in2="BackgroundImageFix" result="effect1_dropShadow_16_109"/>
<feBlend mode="normal" in="SourceGraphic" in2="effect1_dropShadow_16_109" result="shape"/>
</filter>
<filter id="filter2_d_16_109" x="319" y="0" width="86.9127" height="87.0371" filterUnits="userSpaceOnUse" color-interpolation-filters="sRGB">
<feFlood flood-opacity="0" result="BackgroundImageFix"/>
<feColorMatrix in="SourceAlpha" type="matrix" values="0 0 0 0 0 0 0 0 0 0 0 0 0 0 0 0 0 0 127 0" result="hardAlpha"/>
<feOffset dy="4"/>
<feGaussianBlur stdDeviation="7.5"/>
<feComposite in2="hardAlpha" operator="out"/>
<feColorMatrix type="matrix" values="0 0 0 0 0.333333 0 0 0 0 0.431373 0 0 0 0 0.690196 0 0 0 0.15 0"/>
<feBlend mode="normal" in2="BackgroundImageFix" result="effect1_dropShadow_16_109"/>
<feBlend mode="normal" in="SourceGraphic" in2="effect1_dropShadow_16_109" result="shape"/>
</filter>
<filter id="filter3_d_16_109" x="202" y="206" width="86.9127" height="87.0371" filterUnits="userSpaceOnUse" color-interpolation-filters="sRGB">
<feFlood flood-opacity="0" result="BackgroundImageFix"/>
<feColorMatrix in="SourceAlpha" type="matrix" values="0 0 0 0 0 0 0 0 0 0 0 0 0 0 0 0 0 0 127 0" result="hardAlpha"/>
<feOffset dy="4"/>
<feGaussianBlur stdDeviation="7.5"/>
<feComposite in2="hardAlpha" operator="out"/>
<feColorMatrix type="matrix" values="0 0 0 0 0.333333 0 0 0 0 0.431373 0 0 0 0 0.690196 0 0 0 0.15 0"/>
<feBlend mode="normal" in2="BackgroundImageFix" result="effect1_dropShadow_16_109"/>
<feBlend mode="normal" in="SourceGraphic" in2="effect1_dropShadow_16_109" result="shape"/>
</filter>
<filter id="filter4_d_16_109" x="579.707" y="34.9998" width="86.9127" height="87.0371" filterUnits="userSpaceOnUse" color-interpolation-filters="sRGB">
<feFlood flood-opacity="0" result="BackgroundImageFix"/>
<feColorMatrix in="SourceAlpha" type="matrix" values="0 0 0 0 0 0 0 0 0 0 0 0 0 0 0 0 0 0 127 0" result="hardAlpha"/>
<feOffset dy="4"/>
<feGaussianBlur stdDeviation="7.5"/>
<feComposite in2="hardAlpha" operator="out"/>
<feColorMatrix type="matrix" values="0 0 0 0 0.333333 0 0 0 0 0.431373 0 0 0 0 0.690196 0 0 0 0.15 0"/>
<feBlend mode="normal" in2="BackgroundImageFix" result="effect1_dropShadow_16_109"/>
<feBlend mode="normal" in="SourceGraphic" in2="effect1_dropShadow_16_109" result="shape"/>
</filter>
<filter id="filter5_d_16_109" x="-3.05176e-05" y="177.963" width="86.9128" height="87.0371" filterUnits="userSpaceOnUse" color-interpolation-filters="sRGB">
<feFlood flood-opacity="0" result="BackgroundImageFix"/>
<feColorMatrix in="SourceAlpha" type="matrix" values="0 0 0 0 0 0 0 0 0 0 0 0 0 0 0 0 0 0 127 0" result="hardAlpha"/>
<feOffset dy="4"/>
<feGaussianBlur stdDeviation="7.5"/>
<feComposite in2="hardAlpha" operator="out"/>
<feColorMatrix type="matrix" values="0 0 0 0 0.333333 0 0 0 0 0.431373 0 0 0 0 0.690196 0 0 0 0.15 0"/>
<feBlend mode="normal" in2="BackgroundImageFix" result="effect1_dropShadow_16_109"/>
<feBlend mode="normal" in="SourceGraphic" in2="effect1_dropShadow_16_109" result="shape"/>
</filter>
<filter id="filter6_d_16_109" x="169.67" y="98" width="312.784" height="80.2727" filterUnits="userSpaceOnUse" color-interpolation-filters="sRGB">
<feFlood flood-opacity="0" result="BackgroundImageFix"/>
<feColorMatrix in="SourceAlpha" type="matrix" values="0 0 0 0 0 0 0 0 0 0 0 0 0 0 0 0 0 0 127 0" result="hardAlpha"/>
<feOffset dy="4"/>
<feGaussianBlur stdDeviation="7.5"/>
<feComposite in2="hardAlpha" operator="out"/>
<feColorMatrix type="matrix" values="0 0 0 0 0.333333 0 0 0 0 0.431373 0 0 0 0 0.690196 0 0 0 0.15 0"/>
<feBlend mode="normal" in2="BackgroundImageFix" result="effect1_dropShadow_16_109"/>
<feBlend mode="normal" in="SourceGraphic" in2="effect1_dropShadow_16_109" result="shape"/>
</filter>
</defs>
</svg>
